<svg width="350" height="300" viewBox="0 0 350 300" fill="none" xmlns="http://www.w3.org/2000/svg">
<rect width="350" height="300" fill="none"/>
<path d="M287.77 97.2361C284.045 96.0049 280.289 94.8643 276.504 93.8154C277.14 91.3129 277.725 88.8406 278.245 86.4118C286.773 46.5276 281.198 14.3961 262.154 3.81683C243.895 -6.32512 214.035 4.25017 183.877 29.5352C180.905 32.0317 177.999 34.6 175.161 37.2379C173.262 35.4838 171.329 33.7637 169.363 32.0786C137.756 5.04309 106.076 -6.35146 87.0529 4.25807C68.8105 14.4316 63.4088 44.6375 71.0869 82.4367C71.8508 86.1803 72.7133 89.9046 73.6736 93.606C69.1893 94.8336 64.8621 96.1402 60.7209 97.5311C23.6646 109.978 0 129.484 0 149.716C0 170.612 25.4051 191.572 64.0008 204.281C67.1298 205.307 70.2849 206.258 73.4631 207.133C72.4309 211.119 71.5145 215.133 70.715 219.169C63.3951 256.312 69.1113 285.804 87.3045 295.913C106.095 306.353 137.633 295.623 168.342 269.761C170.832 267.659 173.267 265.497 175.645 263.277C178.718 266.133 181.873 268.906 185.106 271.593C214.854 296.253 244.232 306.21 262.407 296.074C281.18 285.604 287.282 253.921 279.36 215.375C278.736 212.356 278.036 209.351 277.262 206.363C279.476 205.731 281.65 205.081 283.769 204.404C323.894 191.597 350 170.892 350 149.716C350 129.41 325.571 109.773 287.77 97.2361V97.2361ZM279.068 190.732C277.154 191.342 275.19 191.93 273.189 192.503C268.759 178.993 262.782 164.629 255.466 149.786C262.447 135.297 268.194 121.116 272.5 107.694C276.08 108.693 279.554 109.745 282.904 110.855C315.293 121.598 335.048 137.479 335.048 149.716C335.048 162.75 313.712 179.672 279.068 190.732V190.732ZM264.693 218.173C268.196 235.217 268.695 250.627 266.375 262.675C264.291 273.501 260.099 280.717 254.915 283.608C243.886 289.759 220.298 281.764 194.858 260.674C191.851 258.176 188.916 255.598 186.058 252.943C195.921 242.552 205.777 230.472 215.396 217.056C232.317 215.61 248.302 213.244 262.798 210.016C263.496 212.72 264.128 215.44 264.693 218.173V218.173ZM119.323 282.545C108.546 286.211 99.9633 286.316 94.7748 283.434C83.7348 277.3 79.1451 253.62 85.4055 221.856C86.1496 218.102 87.0017 214.369 87.9607 210.661C102.297 213.717 118.166 215.914 135.126 217.239C144.811 230.367 154.952 242.433 165.171 252.999C162.999 255.024 160.776 256.997 158.504 258.916C144.923 270.351 131.316 278.465 119.323 282.545V282.545ZM68.8379 190.651C51.7713 185.031 37.677 177.728 28.0164 169.758C19.3348 162.596 14.9529 155.485 14.9529 149.716C14.9529 137.438 33.9527 121.777 65.6428 111.133C69.4887 109.842 73.5137 108.624 77.6904 107.481C82.0709 121.205 87.8158 135.556 94.7488 150.066C87.7256 164.792 81.8986 179.371 77.4758 193.258C74.5748 192.457 71.6946 191.588 68.8379 190.651V190.651ZM85.7609 79.6694C79.1834 47.285 83.5516 22.856 94.5451 16.7248C106.254 10.1944 132.146 19.5052 159.436 42.8502C161.216 44.3759 162.966 45.9326 164.687 47.5194C154.518 58.0394 144.471 70.0161 134.872 83.0663C118.411 84.5362 102.654 86.8965 88.1672 90.059C87.2746 86.6163 86.4723 83.1524 85.7609 79.6707V79.6694ZM236.735 115.585C233.314 109.891 229.765 104.269 226.092 98.7218C237.259 100.082 247.959 101.888 258.006 104.096C254.99 113.41 251.23 123.148 246.805 133.132C243.57 127.219 240.213 121.369 236.735 115.585V115.585ZM175.168 57.8142C182.064 65.0123 188.971 73.0482 195.765 81.7676C181.984 81.1406 168.179 81.1379 154.398 81.7597C161.198 73.1206 168.164 65.0953 175.168 57.8142ZM113.206 115.684C109.772 121.421 106.477 127.235 103.325 133.12C98.9721 123.172 95.2465 113.389 92.2045 103.943C102.19 101.791 112.839 100.031 123.936 98.6954C120.221 104.276 116.644 109.94 113.206 115.683V115.684ZM124.254 201.761C112.79 200.529 101.981 198.86 91.998 196.765C95.0879 187.15 98.8955 177.16 103.343 166.998C106.508 172.888 109.816 178.705 113.265 184.445C116.811 190.346 120.483 196.125 124.254 201.761ZM175.581 242.632C168.494 235.267 161.425 227.118 154.522 218.353C161.224 218.606 168.056 218.735 175 218.735C182.134 218.735 189.186 218.581 196.127 218.284C189.312 227.206 182.431 235.367 175.581 242.632ZM246.946 166.479C251.624 176.753 255.567 186.691 258.698 196.141C248.551 198.372 237.594 200.169 226.049 201.503C229.749 195.853 233.331 190.133 236.794 184.346C240.315 178.464 243.7 172.507 246.946 166.479V166.479ZM223.843 177.149C218.541 186.022 212.941 194.726 207.052 203.248C196.385 203.976 185.694 204.338 175 204.332C164.108 204.332 153.513 204.006 143.311 203.368C137.269 194.866 131.562 186.146 126.204 177.228H126.205C120.872 168.358 115.89 159.295 111.271 150.06C115.879 140.823 120.845 131.756 126.16 122.878L126.159 122.879C131.471 114 137.133 105.317 143.129 96.8514C153.538 96.0928 164.212 95.6976 174.999 95.6976H175C185.836 95.6976 196.524 96.0967 206.929 96.8607C212.866 105.314 218.491 113.966 223.794 122.802C229.126 131.66 234.158 140.682 238.882 149.856C234.207 159.123 229.191 168.226 223.843 177.149V177.149ZM254.687 16.2954C266.406 22.8073 270.964 49.0671 263.601 83.5036C263.13 85.7006 262.603 87.9384 262.028 90.2078C247.506 86.9782 231.738 84.5771 215.229 83.0847C205.613 69.891 195.647 57.8958 185.644 47.5115C188.265 45.0768 190.949 42.7052 193.694 40.399C219.533 18.736 243.683 10.1826 254.687 16.2954V16.2954ZM175 119.606C192.261 119.606 206.254 133.087 206.254 149.716C206.254 166.345 192.261 179.826 175 179.826C157.739 179.826 143.746 166.345 143.746 149.716C143.746 133.087 157.739 119.606 175 119.606V119.606Z" fill="#00D8FF"/>
</svg>
