<svg width="300" height="200" viewBox="0 0 300 200" fill="none" xmlns="http://www.w3.org/2000/svg">
<rect width="300" height="200" fill="none"/>
<path d="M257.61 114.646C247.173 114.694 238.102 116.928 230.507 120.231C227.719 115.325 224.932 110.954 224.441 107.748C223.894 104.008 223.239 101.725 223.894 97.2562C224.55 92.7874 227.501 86.4239 227.446 85.9385C227.392 85.453 226.79 83.1697 220.779 83.1218C214.769 83.0728 209.577 84.1416 208.976 85.5499C208.375 86.9582 207.228 90.1645 206.463 93.4666C205.424 98.3249 194.441 115.664 188.158 124.748C186.135 121.203 184.387 118.094 184.004 115.617C183.457 111.877 182.801 109.594 183.457 105.125C184.114 100.656 187.064 94.2937 187.009 93.8072C186.954 93.3218 186.353 91.0385 180.343 90.9905C174.331 90.9416 169.139 92.0103 168.539 93.4187C167.938 94.828 167.282 98.1301 166.026 101.336C164.768 104.543 150.179 133.493 146.354 140.972C144.808 143.999 143.186 146.995 141.49 149.958C141.49 149.958 141.435 150.104 141.271 150.347C140.738 151.276 140.192 152.199 139.633 153.116V153.163C138.813 154.476 137.938 155.689 137.501 155.689C137.173 155.689 136.572 152.193 137.61 147.432C139.796 137.378 144.987 121.737 144.933 121.203C144.933 120.911 145.916 118.192 141.545 116.782C137.282 115.374 135.753 117.705 135.37 117.705C134.988 117.705 134.713 118.531 134.713 118.531C134.713 118.531 139.469 100.948 125.643 100.948C117.01 100.948 105.097 109.351 99.1949 116.928C92.4861 120.173 85.783 123.428 79.0856 126.692C75.8629 128.295 72.5289 129.898 69.4141 131.403C69.1949 131.209 68.977 130.966 68.7578 130.772C52.0364 114.888 21.1082 103.668 22.4196 82.3447C22.9117 74.5728 25.9164 54.1718 81.8184 29.3999C127.829 9.24157 164.441 14.827 170.78 27.2134C179.85 44.8947 151.163 77.7301 103.621 82.4895C85.4793 84.2874 75.9707 78.0697 73.5672 75.7385C71.0535 73.3093 70.6703 73.1634 69.741 73.6499C68.2117 74.3791 69.1949 76.5645 69.741 77.827C71.1625 81.1291 77.009 86.9582 86.8996 89.8249C95.643 92.3499 116.9 93.7593 142.638 84.9187C171.435 75.0093 193.949 47.4687 187.338 24.3968C180.725 0.984273 137.009 -6.73864 95.643 6.32698C71.0535 14.0999 44.3864 26.3395 25.2063 42.2718C2.41916 61.2145 -1.18787 77.6812 0.287525 84.5791C5.58909 109.059 43.5672 124.992 58.7582 136.795C57.993 137.183 57.2817 137.524 56.6817 137.816C49.0856 141.167 20.1239 154.621 12.911 168.853C4.71487 184.979 14.2235 196.541 20.5071 198.094C40.0153 202.903 60.0696 194.257 70.8344 179.976C81.5992 165.696 80.2879 147.141 75.3157 138.641C75.2606 138.544 75.2067 138.446 75.0965 138.349C77.0641 137.329 79.0856 136.26 81.0532 135.241C84.6694 133.34 88.3316 131.51 92.0371 129.751C90.1785 134.269 88.8121 139.66 88.1571 147.432C87.3367 156.564 91.5438 168.416 97.0633 173.078C99.5231 175.12 102.419 175.168 104.277 175.168C110.725 175.168 113.622 170.407 116.846 164.773C120.78 157.876 124.332 149.861 124.332 149.861C124.332 149.861 119.905 171.525 131.928 171.525C136.299 171.525 140.725 166.473 142.693 163.899V163.947C142.693 163.947 142.802 163.801 143.021 163.461C143.458 162.83 143.731 162.441 143.731 162.441V162.345C145.479 159.624 149.414 153.455 155.261 143.206C162.802 129.995 170.07 113.48 170.07 113.48C170.07 113.48 170.726 117.511 172.966 124.214C174.278 128.149 177.009 132.472 179.195 136.649C177.447 138.835 176.354 140.049 176.354 140.049L176.409 140.098C174.987 141.749 173.458 143.546 171.763 145.296C165.807 151.609 158.704 158.848 157.72 160.935C156.571 163.412 156.845 165.21 159.032 166.668C160.616 167.736 163.457 167.881 166.354 167.736C171.709 167.396 175.479 166.23 177.337 165.502C180.234 164.579 183.622 163.17 186.79 161.081C192.638 157.244 196.189 151.755 195.862 144.519C195.698 140.535 194.222 136.552 192.419 132.811C192.966 132.132 193.457 131.452 194.004 130.772C203.239 118.774 210.398 105.61 210.398 105.61C210.398 105.61 211.054 109.642 213.293 116.346C214.387 119.746 216.627 123.437 218.594 127.031C209.905 133.298 204.55 140.583 202.638 145.344C199.196 154.184 201.872 158.167 206.955 159.089C209.249 159.527 212.528 158.555 214.933 157.632C217.993 156.758 221.6 155.253 225.043 153.018C230.89 149.181 236.518 143.837 236.189 136.601C236.025 133.298 235.042 130.043 233.676 126.885C241.053 124.167 250.561 122.66 262.691 123.923C288.704 126.643 293.84 141.069 292.855 147.142C291.872 153.212 286.408 156.516 284.605 157.535C282.801 158.556 282.201 158.896 282.365 159.624C282.583 160.693 283.457 160.645 284.988 160.45C287.119 160.11 298.649 155.544 299.14 144.372C299.961 130.092 284.659 114.5 257.61 114.646V114.646ZM56.9547 174.779C48.3203 183.133 36.2992 186.291 31.1078 183.62C25.5344 180.753 27.7199 168.416 38.3207 159.576C44.7684 154.184 53.0746 149.18 58.5942 146.121C59.8504 145.441 61.709 144.47 63.9496 143.255C64.3317 143.06 64.5508 142.963 64.5508 142.963L65.8621 142.234C69.741 154.863 66.0262 165.987 56.9547 174.779V174.779ZM119.797 136.795C116.791 143.304 110.507 159.964 106.682 159.042C103.403 158.264 101.38 145.635 106.026 133.152C108.375 126.885 113.348 119.405 116.245 116.492C120.944 111.828 126.135 110.273 127.391 112.169C128.977 114.646 121.654 132.714 119.797 136.795V136.795ZM171.654 158.847C170.397 159.43 169.196 159.819 168.648 159.527C168.266 159.332 169.196 158.555 169.196 158.555C169.196 158.555 175.698 152.338 178.266 149.521C179.743 147.87 181.49 145.927 183.348 143.741V144.372C183.348 151.804 175.26 156.807 171.653 158.847H171.654ZM211.654 150.735C210.725 150.152 210.889 148.209 214.004 142.137C215.206 139.757 218.047 135.775 222.911 131.937C223.457 133.492 223.84 134.998 223.785 136.406C223.73 145.781 216.19 149.278 211.654 150.735Z" fill="#CD6799"/>
</svg>
