<svg width="300" height="301" viewBox="0 0 300 301" fill="none" xmlns="http://www.w3.org/2000/svg">
<rect width="300" height="301" fill="none"/>
<path d="M67.6177 230.552L68.3208 228.712L68.438 228.466C69.0239 226.994 69.6099 225.399 70.1958 223.926C70.8989 221.963 71.6021 219.877 72.3052 217.914C72.7739 216.81 73.1255 215.706 73.4771 214.479C74.4146 211.779 75.7036 208.221 77.227 204.785C78.1645 202.699 78.8677 201.227 79.688 199.877C80.6255 198.282 81.563 196.81 82.6177 195.337L83.438 194.11L84.727 193.252C84.8442 193.129 85.0786 193.006 85.313 192.883C85.8989 192.515 86.602 192.27 87.0708 192.025C87.8911 191.656 88.9458 191.288 90.1177 190.92C91.7583 190.429 93.6333 189.939 95.8599 189.448C99.1411 188.712 102.657 187.975 107.11 187.239C113.79 186.135 120.938 185.153 129.493 184.172C144.61 182.454 159.727 181.227 174.258 180.491C181.993 180.123 187.852 180 193.36 180H196.875C200.508 180.123 204.727 180.245 208.594 180.859C210 181.104 211.29 181.35 212.227 181.718C212.579 181.84 212.93 181.963 213.047 182.086L214.219 182.577L215.157 183.436L216.211 184.54C217.5 185.89 218.907 187.485 220.313 189.325C224.766 195.215 228.75 202.331 232.266 210.429C235.665 218.282 237.774 225.276 239.063 232.147L240.821 241.84H219.258L217.969 235.337C216.563 228.466 198.868 210.307 190.079 206.748C189.141 206.38 185.391 205.276 173.79 205.276C149.883 205.276 116.133 209.693 111.329 210.798C105.586 213.62 96.7974 225.399 91.7583 237.178L89.6489 241.963" fill="white"/>
<path d="M214.102 194.724C213.047 193.252 211.875 191.902 210.586 190.675L209.766 189.816C209.766 189.816 209.649 189.816 209.532 189.693C208.946 189.448 208.125 189.325 207.305 189.202C203.907 188.712 200.274 188.589 196.641 188.466C189.258 188.344 181.875 188.589 174.493 188.957C159.727 189.693 144.844 190.92 130.196 192.638C122.813 193.497 115.43 194.479 108.165 195.706C104.532 196.319 100.899 196.933 97.3833 197.791C95.6255 198.16 93.8677 198.65 92.2271 199.141C91.4067 199.386 90.5864 199.632 89.8833 200C89.5317 200.123 89.1802 200.245 89.063 200.491C89.063 200.491 88.9458 200.491 88.9458 200.613C88.1255 201.84 87.3052 203.067 86.4849 204.417C85.6646 205.767 85.0786 207.239 84.3755 208.712C83.0864 211.656 81.9145 214.724 80.8599 217.791C79.8052 220.859 78.6333 224.049 77.5786 227.239C76.9927 228.834 76.4067 230.429 75.7036 232.025C75.4692 232.761 75.1177 233.497 74.7661 234.233H84.7271C90.1177 221.595 100.313 207.117 108.75 203.558C111.094 202.577 148.829 197.669 173.79 197.669C183.047 197.669 189.375 198.405 192.891 199.755C203.086 203.926 223.477 223.681 225.586 234.356H231.329C230.157 227.607 227.813 220.982 225.118 214.601C222.071 207.239 218.438 200.491 214.102 194.724" fill="#BA8449"/>
<path d="M224.883 241.963L223.711 235.337C222.657 229.816 220.899 223.926 218.086 217.423C215.04 210.552 211.758 204.54 208.008 199.755C207.305 198.773 206.602 197.914 205.899 197.178C202.969 196.687 199.571 196.687 196.524 196.564H193.243C187.969 196.564 182.344 196.687 174.844 197.055C160.547 197.791 145.899 199.018 131.016 200.736C122.696 201.718 115.782 202.699 109.454 203.681C105.352 204.294 102.071 205.031 99.1411 205.644C97.2661 206.135 95.8599 206.503 94.5708 206.871C94.3365 206.871 94.2193 206.994 94.1021 206.994C93.8677 207.485 93.5161 207.853 93.2818 208.344C92.6958 209.325 92.2271 210.429 91.4068 211.902C90.1177 214.724 89.063 217.669 88.1255 220.245C87.6568 221.35 87.3052 222.454 86.9536 223.558C86.2505 225.644 85.5474 227.73 84.7271 229.816C84.1411 231.411 83.438 233.006 82.8521 234.724L82.7349 234.969C82.5005 235.706 82.149 236.442 81.9146 237.055L79.8052 241.963H66.0943L64.1021 240.982L63.8677 240.859C59.1802 238.037 59.1802 233.865 59.2974 232.147V231.779L59.5318 230.675L59.8833 229.325C60.1177 228.466 60.3521 227.485 60.5865 226.626C61.0552 224.785 61.6411 223.067 62.2271 221.35C63.2818 218.16 64.5708 214.724 66.0943 211.043C67.7349 207.239 69.2583 203.926 71.0161 200.859C71.8365 199.264 72.774 197.669 73.9458 195.828C75.0005 194.11 76.1724 192.393 77.3443 190.798C78.399 189.448 79.3365 188.589 80.0396 188.098H80.1568C80.8599 187.485 81.563 187.117 81.9146 186.994C82.9693 186.38 83.7896 186.012 84.3755 185.767C85.7818 185.153 87.0708 184.785 88.1255 184.417C90.4693 183.681 92.6958 183.19 94.3365 182.822C97.7349 182.086 101.368 181.35 105.938 180.614C112.735 179.509 119.883 178.65 128.672 177.669C143.907 176.074 159.141 174.847 173.907 174.233C180.938 173.988 186.446 173.742 191.485 173.742H196.876C200.626 173.865 204.844 173.988 209.415 174.724H209.532C210.586 174.969 212.227 175.215 214.102 175.828H214.219C214.688 176.074 215.391 176.319 216.211 176.687C216.797 177.055 217.266 177.301 217.618 177.546L218.204 178.037L218.672 178.405L219.141 178.896L220.43 180.245C221.954 181.841 223.36 183.558 224.883 185.644C229.571 192.025 233.672 199.387 237.422 208.098C239.18 212.147 240.704 216.196 241.876 220.123C243.165 224.417 244.102 228.466 244.805 232.393L246.211 241.84H224.883V241.963V241.963Z" fill="white"/>
<path d="M75.1177 241.963L80.2739 230.307C84.6099 220.614 95.0395 202.822 106.641 197.791L106.875 197.669C110.743 196.196 149.883 191.411 173.79 191.411C187.149 191.411 192.188 192.761 194.766 193.865C206.836 198.773 227.813 219.509 230.625 231.779L232.969 241.84H75.1177V241.963Z" fill="white"/>
<path d="M217.032 241.963L215.625 235.706C214.336 229.939 197.813 212.638 189.258 209.08C188.438 208.712 185.04 207.73 173.79 207.73C150.821 207.73 117.54 212.025 112.149 213.129C107.696 215.46 99.6099 225.399 94.3364 237.178L92.2271 241.841H72.7739L77.6958 230.429C83.438 216.933 94.8052 200.245 105.938 195.583C110.274 193.742 149.883 189.08 173.907 189.08C184.336 189.08 191.368 189.939 195.704 191.656C207.774 196.564 230.391 217.914 233.204 232.147L235.079 241.963H217.032V241.963Z" fill="white"/>
<path d="M226.055 241.963L223.829 239.755C215.391 231.534 213.047 214.479 215.626 207.485C217.383 202.822 221.133 201.227 223.946 201.227C224.766 201.227 225.469 201.35 226.172 201.595C227.696 201.472 231.211 198.405 232.266 196.687C233.907 193.497 237.071 191.534 240.938 191.534C246.68 191.534 256.055 196.319 259.102 200.859C260.86 203.436 261.329 206.503 260.391 209.202C260.274 209.448 260.157 209.939 259.922 210.552C256.758 220.491 252.657 232.638 249.376 238.282L247.149 242.086L226.055 241.963V241.963Z" fill="white"/>
<path d="M225.352 241.963L232.618 229.571C236.133 223.558 238.594 218.65 240.235 214.847C236.133 217.914 230.391 219.755 221.836 220.245L221.602 220L221.485 220.859C216.446 220.859 212.344 216.564 212.11 211.288C211.993 208.712 212.93 206.135 214.571 204.172C216.211 202.209 218.555 201.104 221.016 200.982C229.454 200.613 230.508 198.528 232.032 195.46C234.141 191.288 238.711 188.834 244.688 188.834C246.211 188.834 247.735 188.957 249.141 189.325C256.524 191.043 261.329 196.933 261.68 204.54C262.032 212.27 257.93 223.558 249.727 238.037L247.501 241.963H225.352V241.963Z" fill="white"/>
<path d="M256.172 217.791C246.68 217.791 236.368 211.288 231.094 204.908C226.289 199.141 225.821 193.988 226.289 190.675C226.875 186.626 230.039 182.577 235.782 182.577C236.836 182.577 237.891 182.699 238.828 182.822C239.766 178.405 241.993 169.202 251.016 169.202H252.305C256.641 169.693 259.922 172.515 261.211 176.81C262.618 176.074 264.258 175.46 266.133 175.46C268.946 175.46 271.641 176.687 273.633 178.896C276.797 182.454 277.5 187.362 275.508 192.025C277.618 193.374 279.258 195.46 279.961 198.159C280.899 201.595 280.313 205.276 278.203 208.221C274.102 214.233 264.61 217.055 257.11 217.301C256.641 217.791 256.407 217.791 256.172 217.791M246.797 15.7055C238.243 21.3497 228.868 34.2331 217.383 51.9018C215.625 54.7239 212.696 56.1963 209.414 56.1963C205.196 56.1963 199.805 53.4969 193.594 48.2208C183.75 39.8773 183.516 35.2147 183.399 33.3742C183.164 28.4662 186.68 24.2945 191.602 23.8037C201.094 22.9448 208.946 16.9325 216.563 11.1656C224.18 5.39875 231.211 0.122681 239.649 0.122681C241.289 0.122681 243.047 0.368079 244.688 0.736178" fill="white"/>
<path d="M192.305 32.0245C215.274 29.8159 228.75 4.90796 242.696 8.71165C233.321 14.8466 224.063 27.1166 211.055 47.2393C207.891 52.0245 185.977 32.638 192.305 32.0245" fill="#FFF8EE"/>
<path d="M43.4771 20.6135C49.2192 15.092 56.9536 12.2699 66.4458 12.2699C74.6489 12.2699 84.3755 14.3558 95.2739 18.5276C98.2036 19.6319 102.071 19.8773 105 19.8773H109.336C112.032 19.8773 117.774 19.8773 120.235 25.3988C121.055 27.4847 122.11 31.7791 118.946 36.8098C115.079 43.0675 104.883 49.6933 95.0396 49.6933H94.5708C89.2974 49.5706 84.3755 46.6258 78.6333 43.3129C71.4849 39.1411 63.3989 34.3558 53.7895 34.3558C52.5005 34.3558 51.0942 34.4785 49.8052 34.6012M220.196 80.1227C215.977 80.1227 208.008 78.2822 202.969 65.7669C200.157 59.1411 199.219 51.6564 199.219 47.4847C199.219 38.8957 203.555 36.5644 206.25 35.9509C208.125 33.9877 211.641 28.9571 214.219 25.1534C224.883 9.93865 232.618 0 241.641 0C243.165 0 244.571 0.245397 245.977 0.858894C258.047 5.88957 263.907 16.5644 261.915 30.0614C260.508 40 254.532 51.7791 245.743 62.5767C241.641 67.6074 230.977 79.3865 221.485 80.1227H220.196" fill="white"/>
<path d="M81.6801 84.7853C80.6254 84.7853 79.5707 84.7853 78.6332 84.5399C63.6332 81.9632 44.8832 66.135 37.8519 49.816C33.0472 38.6503 35.1566 31.0429 37.8519 26.6258C42.1879 19.3865 48.6332 15.5828 56.6019 15.5828C66.2113 15.5828 75.8207 21.1043 84.2582 25.8896C87.5394 27.7301 92.2269 30.4294 94.2191 30.9202C94.9222 30.6748 95.6254 30.5521 96.4457 30.5521C99.4926 30.5521 102.305 32.2699 103.946 35.2147C107.813 42.3313 105.469 61.4724 99.3754 72.5153C95.1566 80.6135 88.8285 84.7853 81.6801 84.7853V84.7853Z" fill="white"/>
<path d="M133.946 221.718C98.7894 221.718 63.9847 203.681 52.3831 190.552C40.3128 176.933 35.9769 161.472 39.2581 144.54C42.0706 130.675 49.4535 118.282 55.8988 107.239C60.3519 99.6319 64.5706 92.5153 65.7425 87.362C80.0394 21.227 115.899 12.7607 145.547 12.7607C147.422 12.7607 149.414 12.7607 151.641 12.8834C214.805 14.8466 221.133 46.7485 224.883 65.8896C225.586 69.4479 226.289 72.7607 227.11 74.9693C248.321 129.448 251.836 162.086 238.828 184.172C226.055 205.89 198.047 216.564 142.266 221.35C139.571 221.595 136.758 221.718 133.946 221.718V221.718Z" fill="white"/>
<path d="M132.657 221.84C96.7972 221.84 63.6331 203.19 52.5003 190.552C40.43 176.933 36.0941 161.472 39.3753 144.54C42.1878 130.675 49.5706 118.282 56.016 107.239C60.4691 99.6319 64.6878 92.5153 65.8597 87.362C80.1566 21.227 116.016 12.7607 145.664 12.7607C147.539 12.7607 149.532 12.7607 151.758 12.8834C214.922 14.8466 221.25 46.7485 225 65.8896C225.703 69.4479 226.407 72.7607 227.227 74.9693C248.086 128.589 251.485 160.982 238.711 183.067C224.063 208.466 189.61 216.687 142.5 221.35C139.219 221.718 135.938 221.84 132.657 221.84Z" fill="white"/>
<path d="M223.946 175.706C224.414 174.601 224.883 173.374 225.352 172.27C230.157 160.245 233.789 149.693 228.047 142.945C221.25 135.092 192.539 120.859 166.992 108.344C118.125 84.1718 87.8909 68.589 83.555 53.1289C82.5003 49.2025 82.969 45.1534 84.9612 41.7178C93.3987 27.8528 116.953 13.0062 149.18 13.0062H150.117C180.469 13.2516 202.5 22.454 215.742 40.1227C226.992 55.092 229.453 72.6381 231.328 85.3988C231.914 89.6933 232.735 95.2147 233.555 96.6871C256.524 138.037 245.977 168.589 237.657 182.945L223.946 175.706V175.706Z" fill="white"/>
<path d="M199.922 128.098C188.086 128.098 168.282 125.031 161.485 118.16C156.094 112.761 154.102 103.804 151.993 95.092C151.172 91.4111 149.766 85.5215 148.477 82.8221H148.36C147.891 84.1718 147.305 85.8896 146.836 87.2393C143.672 96.5644 139.219 109.448 129.961 116.442C125.977 119.509 111.563 122.209 100.43 122.209C89.2972 122.209 80.8597 119.755 75.2347 114.724C67.1488 107.607 61.055 94.4785 56.9535 75.7055C56.7191 75.5828 56.6019 75.4601 56.3675 75.3374C54.4925 73.9877 52.0316 72.3926 50.7425 69.5706C48.6332 65.1534 49.4535 57.3006 51.68 53.1288C53.3207 50.0614 56.1332 48.0982 59.18 47.8528H60.2347C61.8754 47.8528 63.516 48.0982 65.391 48.4663C67.266 48.8344 69.4925 49.2025 71.3675 49.2025H72.4222C83.555 47.4847 93.9847 46.7485 103.477 46.7485C126.563 46.7485 138.75 51.6564 143.321 53.6196C143.672 53.7423 144.024 53.865 144.258 53.9877C145.547 54.3558 148.008 54.8466 150.586 54.8466C151.524 54.8466 152.461 54.8466 153.282 54.6012C163.711 52.8834 173.672 52.1472 182.813 52.1472C207.188 52.1472 220.078 57.9141 225.703 60.4908C226.172 60.7362 226.641 60.9816 226.993 60.9816H227.461C228.985 60.9816 231.211 60.4908 233.086 60.1227C234.493 59.7546 235.899 59.5092 237.188 59.2638H238.243C241.875 59.2638 245.157 61.4724 247.149 65.1534C249.375 69.4479 250.899 78.4049 247.735 83.5583C245.625 86.9939 242.227 88.589 239.414 89.9387C239.063 90.0614 238.594 90.3068 238.243 90.5521C237.305 92.2699 235.664 95.7055 234.258 98.5276C230.157 106.871 225.586 116.442 221.368 121.595C217.618 126.012 210.586 128.098 199.922 128.098" fill="white"/>
<g opacity="0.3">
<path d="M195.209 126.112C185.834 126.112 172.592 124.639 163.1 117.645C157.709 113.596 155.248 105.498 151.85 92.492C150.912 88.811 149.506 83.6577 148.451 81.081C147.865 82.5534 147.162 84.5166 146.576 86.1116C143.061 96.0503 138.256 109.547 129.467 115.191C124.897 118.136 110.717 120.836 99.7013 120.836C87.8654 120.836 79.3107 118.013 74.3888 112.615C61.8498 98.8724 59.3888 85.7436 57.8654 78.0135C57.631 76.9092 57.3967 75.4368 57.1623 74.5779C49.7795 70.5288 49.3107 64.5166 49.4279 61.9399C49.7795 57.1546 53.2951 53.5963 57.631 53.5963C60.5607 53.5963 62.4357 55.0687 63.842 56.0503C63.9592 56.173 64.0763 56.2957 64.3107 56.2957C64.4279 56.2957 64.7795 56.4184 64.8967 56.5411C66.7717 57.1546 72.2795 58.7497 73.4513 66.2343C73.6857 67.584 75.5607 75.4368 78.6076 83.6577C83.4123 96.7865 86.8107 98.9951 87.1623 99.1178C91.1467 100.59 95.8342 101.326 101.108 101.326C109.779 101.326 117.045 99.3632 119.975 98.3816C121.733 95.5595 125.248 88.1975 127.709 83.1669C135.092 67.8294 136.381 65.4981 139.545 63.7804C141.303 62.7988 143.412 62.308 146.108 62.308C149.623 62.308 154.662 63.1669 157.006 64.2712C162.397 66.7251 165.209 74.0871 171.537 93.1055C172.709 96.5411 174.115 100.958 175.053 103.167C179.74 105.498 190.404 107.093 201.537 107.093C204.701 107.093 207.045 106.971 208.569 106.848C209.623 104.517 211.147 101.204 212.436 98.3816C221.342 78.5043 222.748 76.173 224.975 74.3325C228.842 71.265 235.639 69.1791 239.506 69.1791C244.662 69.1791 247.475 72.7374 248.178 76.173C249.467 83.2896 242.787 85.9889 240.561 86.8478C239.975 87.0932 239.154 87.4613 238.569 87.7067C237.748 89.1791 236.225 92.3693 235.053 94.946C225.444 114.578 222.279 119.977 218.647 122.308C214.194 124.885 203.412 126.112 195.209 126.112Z" fill="white"/>
</g>
<g opacity="0.3">
<path d="M71.7051 67.9951C70.2988 67.9951 67.6035 67.7497 62.2129 65.9092C60.8066 65.4184 59.5176 64.9276 58.6973 64.5595C56.9395 63.8233 52.3691 61.9828 52.3691 56.3386V48.1178H60.1035C61.1582 48.1178 61.8613 48.3632 62.4473 48.4859C64.0879 48.7313 69.3613 49.0994 71.1191 49.2221L72.1738 49.3448C73.5801 49.3448 77.916 48.7313 79.791 48.4859C82.1348 48.1178 82.8379 47.9951 83.7754 47.9951H90.4551L91.5098 54.8663C91.9785 58.3018 90.2207 62.5963 85.8848 63.946C85.6504 64.0687 84.8301 64.3141 84.127 64.5595C80.0254 66.1546 75.9238 67.627 72.4082 67.7497C72.1738 67.9951 71.9395 67.9951 71.7051 67.9951" fill="white"/>
</g>
<g opacity="0.3">
<path d="M226.51 79.7669C223.932 79.7669 221.354 78.6626 217.838 76.0859C214.439 73.6319 211.861 71.1779 211.861 66.8834V58.6626H219.479C220.533 58.6626 221.588 58.908 222.643 59.3988C223.463 59.7669 226.627 60.8712 228.033 61.2393C228.502 61.2393 229.439 60.9939 231.314 60.6258C232.252 60.3804 232.838 60.3804 233.658 60.3804H240.338L241.393 67.2515C241.861 70.5644 240.455 74.7362 236.119 76.3313L234.713 77.0675C232.604 78.1718 230.143 79.3988 227.682 79.8896C227.447 79.7669 226.979 79.7669 226.51 79.7669" fill="white"/>
</g>
<path d="M200.977 260H172.149V233.865H200.977V260Z" fill="white"/>
<path d="M214.102 194.724C213.047 193.252 211.875 191.902 210.586 190.675L209.766 189.816C209.766 189.816 209.649 189.816 209.532 189.693C208.946 189.448 208.125 189.325 207.305 189.202C203.907 188.712 200.274 188.589 196.641 188.466C189.258 188.344 181.875 188.589 174.493 188.957C159.727 189.693 144.844 190.92 130.196 192.638C122.813 193.497 115.43 194.479 108.165 195.706C104.532 196.319 100.899 196.933 97.3833 197.791C95.6255 198.16 93.8677 198.65 92.2271 199.141C91.4067 199.386 90.5864 199.632 89.8833 200C89.5317 200.123 89.1802 200.245 89.063 200.491C89.063 200.491 88.9458 200.491 88.9458 200.613C88.1255 201.84 87.3052 203.067 86.4849 204.417C85.6646 205.767 85.0786 207.239 84.3755 208.712C83.0864 211.656 81.9145 214.724 80.8599 217.791C79.8052 220.859 78.6333 224.049 77.5786 227.239C76.9927 228.834 76.4067 230.429 75.7036 232.025C75.4692 232.761 75.1177 233.497 74.7661 234.233H84.7271C90.1177 221.595 100.313 207.117 108.75 203.558C111.094 202.577 148.829 197.669 173.79 197.669C183.047 197.669 189.375 198.405 192.891 199.755C203.086 203.926 223.477 223.681 225.586 234.356H231.329C230.157 227.607 227.813 220.982 225.118 214.601C222.071 207.239 218.438 200.491 214.102 194.724" fill="#BA8449"/>
<path d="M230.508 211.534C227.344 204.172 223.711 197.178 218.907 190.798C217.735 189.202 216.446 187.607 215.04 186.135L213.985 185.031L213.75 184.785L213.633 184.663L213.399 184.417C213.165 184.294 212.93 184.172 212.813 184.049C212.461 183.804 212.11 183.681 211.758 183.558C210.469 183.067 209.532 182.945 208.477 182.699C204.493 182.086 200.743 181.963 196.993 181.841C189.375 181.718 181.993 181.84 174.493 182.209C159.493 182.822 144.61 184.049 129.727 185.644C122.344 186.503 114.844 187.362 107.344 188.589C103.594 189.202 99.9614 189.816 96.2114 190.675C94.3364 191.166 92.4614 191.534 90.5864 192.147C89.6489 192.393 88.7114 192.761 87.6567 193.252C87.188 193.497 86.602 193.742 86.0161 194.11C85.7817 194.356 85.4302 194.479 85.0786 194.724C84.7271 194.969 84.3755 195.337 83.9067 195.951C82.8521 197.301 81.7974 198.896 80.8599 200.368C79.9224 201.84 78.9849 203.436 78.1646 205.031C76.5239 208.098 75.0005 211.288 73.5942 214.479C72.3052 217.669 71.0161 220.859 69.9614 224.172C69.3755 225.767 68.9067 227.362 68.5552 229.08C68.3208 229.939 68.0864 230.675 67.852 231.534L67.5005 232.761L67.3833 233.374C67.3833 233.497 67.6177 233.62 68.0864 233.988H75.0005C75.352 233.252 75.5864 232.515 75.938 231.779C76.5239 230.184 77.227 228.589 77.813 227.117C78.9849 223.926 80.0396 220.859 81.0942 217.669C82.1489 214.601 83.3208 211.411 84.6099 208.589C85.313 207.117 86.0161 205.767 86.7192 204.294C87.5395 202.945 88.2427 201.718 89.1802 200.491C89.1802 200.491 89.2974 200.491 89.2974 200.368C89.5317 200.245 89.8833 200.123 90.1177 199.877C90.8208 199.632 91.6411 199.264 92.4614 199.018C94.102 198.528 95.8599 198.037 97.6177 197.669C101.133 196.81 104.766 196.196 108.399 195.583C115.665 194.356 123.047 193.374 130.43 192.515C145.196 190.798 159.961 189.571 174.727 188.834C182.11 188.466 189.493 188.221 196.875 188.344C200.508 188.466 204.258 188.589 207.54 189.08C208.36 189.202 209.18 189.448 209.766 189.571C209.883 189.571 210 189.571 210 189.693L210.821 190.552C212.11 191.902 213.165 193.252 214.336 194.601C218.672 200.368 222.305 207.117 225.352 213.988C228.047 220.368 230.391 226.994 231.563 233.742H237.422C236.836 229.939 235.899 226.258 234.844 222.699C233.438 218.896 232.032 215.215 230.508 211.534" fill="#895B2E"/>
<path d="M192.071 201.595C189.024 200.368 182.813 199.632 173.907 199.632C148.829 199.632 111.797 204.54 109.805 205.399C102.188 208.589 92.6958 222.086 87.4224 233.865H223.243C221.016 224.663 202.149 205.767 192.071 201.595" fill="#FFF8EE"/>
<path d="M192.891 199.264C189.493 197.914 183.047 197.178 173.79 197.178C148.829 197.178 111.094 202.086 108.75 203.067C100.196 206.748 90.1177 221.104 84.7271 233.742H87.3052C92.5786 222.086 102.071 208.589 109.688 205.276C111.68 204.417 148.711 199.509 173.79 199.509C182.696 199.509 188.907 200.123 191.954 201.472C202.032 205.521 220.899 224.54 223.125 233.742H225.469C223.477 223.19 203.086 203.436 192.891 199.264" fill="#E5D0AE"/>
<path d="M239.298 200.368C237.891 203.436 230.508 211.288 224.298 209.448C221.016 208.466 221.602 226.626 229.102 233.865H242.696C246.446 227.607 252.305 208.466 253.008 206.503C253.829 204.172 240.704 197.301 239.298 200.368Z" fill="#BA8449"/>
<path d="M253.711 204.908C253.477 200.982 251.25 198.16 247.266 197.178C244.102 196.442 239.883 197.055 238.829 199.141C236.719 203.313 234.141 208.344 221.368 209.08C220.547 209.08 219.844 209.939 219.844 210.798C219.844 211.656 220.665 212.393 221.485 212.393C234.844 211.779 238.711 206.38 241.524 200.859C242.11 200.368 245.274 199.755 247.852 200.859C249.727 201.718 250.547 203.068 250.665 205.153C251.016 212.761 243.399 226.871 239.297 233.988H242.93C247.5 225.644 254.063 212.761 253.711 204.908Z" fill="#895B2E"/>
<g opacity="0.15">
<path d="M227.385 234.233C235.706 232.147 243.088 223.436 243.674 211.043C243.791 208.712 239.221 204.294 239.221 203.068C239.221 201.841 253.166 203.313 253.87 206.748C254.456 210.184 245.198 230.92 242.034 234.356C238.987 237.669 222.463 235.46 227.385 234.233Z" fill="#E3AB5E"/>
</g>
<path d="M233.907 191.902C232.852 199.509 247.032 209.939 256.641 209.693C264.61 209.448 273.633 205.521 272.344 200.859C271.055 196.074 263.321 201.718 262.618 198.405C262.032 195.215 271.641 189.202 267.774 184.785C264.141 180.736 259.922 191.166 255.704 189.693C251.485 188.221 256.524 178.037 251.25 177.423C245.04 176.81 247.383 191.288 242.696 191.534C239.415 191.902 234.258 189.448 233.907 191.902" fill="#FCD4C3"/>
<path d="M233.907 191.902C232.852 199.509 247.032 209.939 256.641 209.693C264.61 209.448 273.633 205.521 272.344 200.859C271.055 196.074 263.321 201.718 262.618 198.405C262.032 195.215 271.641 189.202 267.774 184.785C264.141 180.736 259.922 191.166 255.704 189.693C251.485 188.221 256.524 178.037 251.25 177.423C245.04 176.81 247.383 191.288 242.696 191.534C239.415 191.902 234.258 189.448 233.907 191.902V191.902Z" stroke="#F8A38F" stroke-width="2" stroke-miterlimit="10"/>
<g opacity="0.5">
<path d="M237.936 191.831C239.459 193.058 244.967 194.653 245.787 192.567C246.725 190.481 247.428 186.309 246.842 185.696C246.373 187.659 245.787 191.34 243.795 192.199C242.271 192.812 238.99 192.076 237.936 191.831Z" fill="#FCD4C3"/>
</g>
<g opacity="0.5">
<path d="M253.077 183.733C252.843 185.082 251.788 191.463 254.952 192.321C257.648 193.058 259.64 191.34 261.749 187.782C260.577 188.886 257.648 191.585 255.421 190.604C253.195 189.499 252.96 187.045 253.077 183.733" fill="#FCD4C3"/>
</g>
<g opacity="0.25">
<path d="M239.503 200.93C255.441 192.709 258.722 206.083 257.902 208.783C251.574 209.887 240.441 203.016 239.503 200.93Z" fill="#FCD4C3"/>
</g>
<g opacity="0.5">
<path d="M262.677 195.701C259.982 198.891 261.271 201.467 263.029 201.836C265.255 202.326 268.185 199.872 267.716 199.872C267.13 199.872 262.794 201.345 261.974 199.136C261.388 197.418 262.326 196.437 262.677 195.701Z" fill="#FCD4C3"/>
</g>
<g opacity="0.15">
<path d="M80.6653 217.013C131.876 247.811 233.478 216.523 228.087 206.461C220.939 193.087 218.126 184.744 202.423 185.48C186.837 186.339 86.5247 194.682 82.4231 197.872C78.4387 201.185 73.9856 212.964 80.6653 217.013" fill="#E3AB5E"/>
</g>
<path d="M192.305 32.0245C215.274 29.8159 228.75 4.90796 242.696 8.71165C233.321 14.8466 224.063 27.1166 211.055 47.2393C207.891 52.0245 185.977 32.638 192.305 32.0245" fill="#FFF8EE"/>
<path d="M192.305 32.0245C215.274 29.8159 228.75 4.90796 242.696 8.71165C233.321 14.8466 224.063 27.1166 211.055 47.2393C207.891 52.0245 185.977 32.638 192.305 32.0245V32.0245Z" stroke="#E5D0AE" stroke-width="3" stroke-miterlimit="10" stroke-linecap="round" stroke-linejoin="round"/>
<path d="M48.7505 26.6258C59.063 16.5644 77.6958 20.4908 92.6958 26.135C101.25 29.3252 112.383 26.7485 113.086 28.589C114.961 32.8834 103.829 41.7178 94.688 41.4724C85.6646 41.3497 70.5474 23.5583 48.7505 26.6258" fill="#BA8449"/>
<path d="M48.7505 26.6258C59.063 16.5644 77.6958 20.4908 92.6958 26.135C101.25 29.3252 112.383 26.7485 113.086 28.589C114.961 32.8834 103.829 41.7178 94.688 41.4724C85.6646 41.3497 70.5474 23.5583 48.7505 26.6258V26.6258Z" stroke="#895B2E" stroke-width="2" stroke-miterlimit="10" stroke-linecap="round" stroke-linejoin="round"/>
<path d="M208.008 43.9264C213.281 45.5214 233.321 4.41715 243.047 8.46623C273.985 21.3497 233.672 70.9202 220.899 72.0245C208.008 73.0061 205.078 42.9448 208.008 43.9264" fill="#FCD4C3"/>
<path d="M208.008 43.9264C213.281 45.5214 233.321 4.41715 243.047 8.46623C273.985 21.3497 233.672 70.9202 220.899 72.0245C208.008 73.0061 205.078 42.9448 208.008 43.9264V43.9264Z" stroke="#F8A38F" stroke-width="2" stroke-miterlimit="10"/>
<path d="M96.2114 39.0184C87.6567 42.9448 57.3051 9.69324 44.5317 31.0429C36.0942 45.1534 61.6411 73.6196 79.9223 76.6871C98.2036 79.7546 100.664 36.9325 96.2114 39.0184" fill="#FCD4C3"/>
<path d="M96.2114 39.0184C87.6567 42.9448 57.3051 9.69324 44.5317 31.0429C36.0942 45.1534 61.6411 73.6196 79.9223 76.6871C98.2036 79.7546 100.664 36.9325 96.2114 39.0184V39.0184Z" stroke="#F8A38F" stroke-width="2" stroke-miterlimit="10"/>
<path d="M231.876 16.4417C230.235 22.0859 216.407 36.6871 218.282 49.2024C218.985 53.865 223.673 67.6074 225.665 67.1166C227.657 66.6258 232.696 63.3129 232.227 64.0491C231.759 64.7853 225.196 69.8159 222.735 71.1656C220.274 69.8159 209.845 44.4172 211.368 43.0675C215.938 38.773 229.884 16.6871 231.876 16.4417" fill="#FCD4C3"/>
<path d="M44.9219 31.9018C54.2969 25.8896 71.4063 28.4662 81.3672 38.6503C84.8828 42.3313 85.9375 54.6012 77.9688 62.9448C74.8047 66.2576 96.7187 51.1656 96.8359 46.7484C96.8359 42.3313 95.4297 41.1043 92.1484 39.8773C80.0781 35.2147 67.4219 24.4172 56.4062 24.6626C49.2578 24.7853 45.9766 29.9386 44.9219 31.9018Z" fill="#FCD4C3"/>
<g opacity="0.25">
<path d="M235.665 13.2209C256.993 25.4908 222.657 44.1411 225.235 67.3313C220.782 66.8405 209.766 44.3865 212.462 42.4233C216.212 39.7239 232.032 12.2393 235.665 13.2209" fill="#FCD4C3"/>
</g>
<path d="M71.1331 88.589C71.4847 86.9939 71.7191 85.2761 71.7191 83.681C71.8362 81.9632 71.9534 80.2454 72.305 78.6503C72.4222 77.7914 72.6566 76.9325 73.0081 76.1963C73.3597 75.4601 73.5941 74.6012 73.8284 73.865C74.4144 72.2699 75.0003 70.6749 75.7034 69.2025C78.3987 62.9448 81.4456 57.0552 85.1956 51.5338C88.9456 46.0123 93.0472 40.8589 97.7347 36.4417C102.422 31.9019 107.93 28.2209 113.789 25.7669C119.649 23.1902 125.977 21.5951 132.305 20.8589C138.633 20 144.961 19.8773 151.289 20C157.617 20.1227 163.946 20.4908 170.274 21.3497C176.602 22.2086 182.93 23.681 189.024 26.0123C192.071 27.2393 195 28.589 197.813 30.3068C200.625 32.0246 203.321 34.1104 205.782 36.5644C208.242 38.8957 210.352 41.7178 212.11 44.6626C213.867 47.6074 215.157 50.7976 216.328 54.1104C217.383 57.3006 218.203 60.6135 218.907 63.9264C219.61 67.2393 220.078 70.4295 220.782 73.4969C221.133 74.9693 221.602 76.4417 222.071 77.9141C222.657 79.3865 223.243 80.9816 223.711 82.5767C224.766 85.6442 225.938 88.8344 226.992 91.9019C231.094 104.417 234.727 117.178 236.953 130.184C238.008 136.687 238.828 143.313 238.946 149.939C239.063 156.564 238.477 163.19 236.719 169.571C236.25 171.166 235.782 172.761 235.196 174.233C234.61 175.706 233.789 177.178 233.321 178.773C233.086 179.632 232.852 180.368 232.5 181.104C232.149 181.84 231.68 182.577 231.211 183.313C230.391 184.663 229.336 186.135 228.282 187.362C224.18 192.515 218.907 196.687 213.282 199.877C207.657 203.067 201.563 205.521 195.469 207.362C189.258 209.202 183.164 210.675 176.836 211.902C170.508 213.129 164.297 213.988 158.086 214.847L148.594 215.951L143.907 216.442C142.383 216.564 140.742 216.687 139.102 216.81C126.211 217.546 113.321 215.583 101.016 212.025C94.805 210.184 88.8284 207.975 82.9691 205.276C77.1097 202.577 71.3675 199.509 65.9769 195.828C63.2816 193.988 60.5862 191.902 58.1253 189.571C57.5394 188.957 56.8362 188.344 56.2503 187.73C55.6644 187.117 55.1956 186.38 54.6097 185.767C53.555 184.417 52.5003 183.067 51.5628 181.718C47.93 176.074 45.0003 169.448 44.0628 162.577C43.0081 155.583 43.9456 148.466 45.8206 141.963C47.6956 135.337 50.6253 129.325 53.6722 123.436C56.8362 117.669 60.2347 112.025 63.5159 106.503C65.1566 103.681 66.68 100.859 68.0862 98.0368C69.3753 94.3558 70.5472 91.5337 71.1331 88.589V88.589ZM75.8206 89.6933C75.0003 93.1288 73.5941 96.319 72.0706 99.3865C70.5472 102.454 68.9066 105.276 67.2659 108.098C63.9847 113.742 60.5862 119.264 57.6566 124.908C54.7269 130.552 52.0316 136.442 50.3909 142.454C48.7503 148.466 48.0472 154.724 48.9847 160.859C49.9222 166.871 52.3831 172.638 55.8987 177.669C56.7191 178.896 57.7737 180.123 58.7112 181.35C59.18 181.963 59.7659 182.577 60.2347 183.067C60.7034 183.681 61.2894 184.172 61.7581 184.663C63.8675 186.748 66.3284 188.589 68.9066 190.429C74.0628 193.865 79.4534 196.933 85.1956 199.509C90.8206 202.086 96.68 204.294 102.657 206.012C108.633 207.73 114.61 209.08 120.703 209.939C126.797 210.798 132.891 211.043 138.985 210.798L143.555 210.429L148.242 209.939C151.289 209.693 154.453 209.325 157.617 208.957C163.828 208.344 170.039 207.485 176.133 206.38C182.344 205.276 188.321 204.049 194.297 202.331C200.274 200.614 206.133 198.65 211.758 196.074C217.266 193.374 222.657 190.061 226.992 185.521C228.047 184.417 229.102 183.19 230.039 181.963C230.508 181.35 230.977 180.614 231.446 180C231.914 179.387 232.5 178.773 232.969 178.037C234.024 176.687 234.492 175.215 235.196 173.742C235.782 172.27 236.25 170.675 236.602 169.08C238.125 162.699 238.477 156.074 238.125 149.571C237.657 143.067 236.602 136.564 235.078 130.184C232.149 117.423 227.813 105.153 223.242 93.0061C222.071 89.9387 220.899 86.8712 219.727 83.9264L217.852 79.3865C217.266 77.7914 216.68 76.0736 216.211 74.4785C215.391 71.1657 214.805 67.9755 214.102 64.7853C213.516 61.5951 212.696 58.5276 211.758 55.5828C209.766 49.5706 206.836 44.1718 202.5 39.8773C198.282 35.5828 193.008 32.27 187.383 29.816C181.758 27.362 175.664 25.7669 169.571 24.6626C163.477 23.5583 157.266 22.9448 151.055 22.5767C144.844 22.3313 138.516 22.2086 132.305 22.9448C126.094 23.681 120 25.0307 114.258 27.6074C108.516 30.0614 103.242 33.6196 98.7894 38.0368C94.2191 42.454 90.5862 47.8528 87.8909 53.4969C85.0784 59.2638 83.0862 65.3988 81.3284 71.5337C80.8597 73.0061 80.5081 74.6012 80.1566 76.1963C79.9222 76.9325 79.805 77.7914 79.5706 78.5276C79.4534 78.8957 79.4534 79.3865 79.3362 79.7546C79.2191 80.1227 79.1019 80.4908 78.8675 80.8589C78.2816 82.3313 77.5784 83.8037 76.8753 85.2761C76.6409 86.6258 76.1722 88.0982 75.8206 89.6933V89.6933Z" fill="#E5D0AE"/>
<path d="M73.4769 89.2024C68.555 112.025 25.5472 148.098 58.2425 185.031C69.3753 197.546 105.469 216.81 141.68 213.251C235.899 203.926 259.688 180.123 219.961 78.0368C213.516 61.4724 220.782 23.1902 151.524 20.9816C122.461 20.1227 87.5394 24.2945 73.4769 89.2024" fill="#FFF8EE"/>
<path d="M89.7662 44.5399C92.8131 39.6319 96.7974 35.5828 101.251 32.2699C105.704 28.9571 110.743 26.5031 115.782 24.5399C126.094 20.6135 136.876 19.1411 147.657 18.773C158.438 18.5276 169.336 19.3865 179.883 22.2086C185.157 23.681 190.313 25.6442 195.235 28.4663C200.157 31.2883 204.727 34.7239 208.594 39.0184C212.461 43.3129 215.626 48.0982 218.087 53.3742C220.547 58.6503 222.305 64.1718 223.594 69.6932C224.883 75.3374 225.704 80.8589 226.407 86.3804C226.758 89.2025 227.11 91.9018 227.696 94.4785C227.93 95.8282 228.282 97.0552 228.633 98.0368L228.985 98.773L229.102 98.8957L229.219 99.0184L229.454 99.5092L230.508 101.35C235.665 111.288 239.532 122.209 240.938 133.62C241.641 139.264 241.758 145.031 241.172 150.798C240.586 156.442 239.18 162.086 237.071 167.362C236.016 169.939 234.844 172.515 233.438 175.092L232.383 176.933C232.032 177.546 231.68 178.037 231.211 178.773C231.094 178.896 231.094 179.018 230.977 179.141C230.626 178.896 231.446 180 229.102 179.141C228.516 178.037 228.868 178.282 228.751 178.037C228.751 177.669 228.868 177.546 228.868 177.301L229.219 176.196L229.805 174.233C231.446 168.957 232.852 163.681 233.438 158.16C233.672 155.46 233.79 152.761 233.438 149.939C233.086 147.239 232.383 144.663 231.094 142.454C230.743 141.84 230.391 141.35 229.922 140.859C229.454 140.368 229.102 139.877 228.633 139.387C227.696 138.405 226.758 137.546 225.704 136.687C223.594 134.969 221.368 133.62 219.024 132.393C214.219 130.184 208.946 129.325 203.79 129.571C198.516 129.816 193.36 130.92 188.321 132.393C185.743 133.129 183.282 133.988 180.704 134.847C179.415 135.337 178.126 135.706 176.837 136.074C176.133 136.319 175.547 136.442 174.727 136.564C174.024 136.687 173.438 136.81 172.735 136.81C167.344 137.423 162.071 137.791 156.563 137.669C151.172 137.546 145.782 136.933 140.391 135.706C135.118 134.479 129.844 132.638 124.922 130.307C120.001 127.853 115.313 124.908 111.094 121.227C106.876 117.546 103.126 113.374 99.8443 108.834C93.2818 99.6319 88.9459 88.9571 86.8365 77.7914C85.7818 72.1472 85.3131 66.5031 85.5474 60.7362C85.6646 57.9141 86.0162 54.9693 86.6021 52.1472C87.3052 49.9387 88.2427 47.1166 89.7662 44.5399V44.5399ZM92.1099 46.135C90.8209 48.3436 90.0006 50.7975 89.4146 53.4969C88.8287 56.0736 88.5943 58.773 88.3599 61.4724C88.1256 66.8712 88.7115 72.3926 89.7662 77.6687C91.9927 88.3436 96.3287 98.5276 102.657 107.117C105.821 111.411 109.454 115.337 113.438 118.773C117.422 122.209 121.876 125.153 126.563 127.485C131.251 129.816 136.172 131.534 141.329 132.761C146.368 133.988 151.641 134.724 156.797 134.847C162.071 135.092 167.227 134.847 172.501 134.233L174.493 133.988C175.079 133.865 175.665 133.742 176.368 133.62C177.657 133.252 178.829 132.883 180.118 132.515C182.696 131.779 185.274 130.92 187.852 130.307C193.008 128.957 198.399 127.975 203.907 127.975C209.297 127.975 214.805 128.957 219.727 131.411C222.188 132.638 224.532 134.11 226.641 135.828C227.696 136.687 228.751 137.669 229.688 138.65L231.094 140.123C231.563 140.614 232.032 141.227 232.383 141.84C233.907 144.294 234.727 147.117 235.079 150.061C235.43 153.006 235.43 155.828 235.196 158.65C234.727 164.294 233.555 169.816 232.032 175.215L231.446 177.178L231.211 178.16C231.211 178.282 231.094 178.528 231.211 178.528C231.094 178.405 231.446 178.773 230.977 177.669C228.751 176.81 229.571 177.914 229.336 177.546C229.571 177.055 229.922 176.442 230.274 175.828C230.626 175.215 230.86 174.601 231.211 173.988C232.383 171.534 233.438 169.08 234.376 166.503C237.891 156.319 238.594 145.153 236.837 134.479C236.016 129.08 234.493 123.926 232.618 118.896C230.743 113.865 228.516 108.957 225.938 104.172L225.001 102.454L224.766 101.963L224.649 101.718L224.532 101.472C224.297 101.104 224.18 100.736 224.063 100.368C223.477 98.8957 223.126 97.3006 222.774 95.9509C222.188 93.1288 221.719 90.3068 221.368 87.6074C220.547 82.0859 219.844 76.6871 218.555 71.411C217.383 66.135 215.743 60.9816 213.516 56.1963C211.29 51.411 208.594 46.9939 205.079 43.0675C198.282 35.3374 188.907 30.1841 178.946 27.1166C168.985 24.0491 158.438 23.0675 147.891 23.0675C137.461 23.0675 126.915 24.4172 117.071 27.8528C112.149 29.5706 107.461 31.9018 103.126 34.9693C98.6724 37.9141 94.9224 41.5951 92.1099 46.135V46.135Z" fill="#E5BFA1"/>
<path d="M88.3599 43.9263C90.1177 40.9816 92.227 38.6503 94.3364 36.4417C96.563 34.2331 98.9067 32.3926 101.368 30.6748C106.29 27.2392 111.563 24.5398 117.071 22.454C128.086 18.4049 139.688 16.8098 151.172 17.0552C162.54 17.4233 174.024 18.8957 185.04 23.0675C190.547 25.1533 195.821 27.8527 200.625 31.5337C205.43 35.092 209.649 39.5092 213.165 44.5398C216.563 49.5705 219.141 55.092 221.133 60.8589C223.008 66.6257 224.297 72.5153 225.235 78.2822C225.704 81.227 226.055 84.0491 226.524 86.9938C226.993 89.8159 227.344 92.7607 227.813 95.3374C228.047 96.6871 228.399 97.9141 228.868 98.8957L228.985 99.1411L229.102 99.3865L229.336 99.8773L229.805 100.859L230.86 102.822C232.149 105.399 233.438 108.098 234.61 110.798C236.836 116.196 238.711 121.963 240 127.853C241.29 133.62 241.875 139.632 241.875 145.644C241.758 157.669 238.594 169.57 232.618 179.755C232.149 180.491 231.211 180.859 230.508 180.368C229.805 179.877 229.571 179.018 229.805 178.405C231.446 173.988 233.204 169.816 234.493 165.521C235.899 161.227 236.836 156.81 236.836 152.515C236.836 148.221 235.782 144.049 233.321 140.736C233.204 140.491 232.969 140.245 232.852 140.123L232.618 139.877L232.383 139.509L231.329 138.405C230.625 137.669 229.805 136.932 228.985 136.319C227.344 134.969 225.469 133.742 223.711 132.515C216.329 127.73 208.477 123.558 200.508 119.386C192.54 115.337 184.454 111.411 176.485 107.607C160.313 99.8773 144.141 92.1472 128.204 83.8036C120.235 79.5092 112.383 75.2147 104.649 70.0613C100.547 66.9938 96.7974 64.2944 93.1645 60.8589C91.4067 59.1411 89.6489 57.1779 88.2427 54.4785C87.5395 53.1288 86.9536 51.5337 86.8364 49.5705C86.8364 48.5889 86.8364 47.6073 87.0708 46.6257C87.188 46.1349 87.3052 45.6441 87.5395 45.1533C87.6567 44.7852 88.0083 44.049 88.1255 43.9263H88.3599V43.9263ZM94.9224 48.0981C94.688 48.4662 94.8052 48.3435 94.688 48.4662C94.688 48.5889 94.688 48.5889 94.5708 48.7116V49.2024C94.5708 49.5705 94.8052 50.184 95.0396 50.9202C95.7427 52.3926 97.0317 53.9877 98.438 55.3374C101.368 58.2822 104.766 60.9816 108.399 63.4356C115.547 68.4662 123.282 72.8834 131.133 77.3006C146.719 85.8895 162.774 93.865 178.711 101.963C186.68 106.012 194.649 110.184 202.618 114.356C210.586 118.65 218.438 122.945 226.055 128.221C227.93 129.571 229.805 130.92 231.563 132.515C232.5 133.251 233.321 134.11 234.258 134.969C234.727 135.46 235.079 135.828 235.547 136.442L235.782 136.81L236.133 137.178C236.368 137.423 236.485 137.669 236.719 137.914C238.125 140 239.18 142.331 239.883 144.785C240.586 147.239 240.704 149.816 240.704 152.27C240.586 157.178 239.297 161.963 237.774 166.503C236.25 171.043 234.375 175.215 232.618 179.509L229.805 178.037C235.313 168.221 237.891 156.932 237.774 145.644C237.54 134.356 234.727 123.19 230.157 112.883C228.985 110.307 227.813 107.73 226.407 105.276L224.297 101.35C223.477 99.7546 223.125 98.1595 222.774 96.6871C222.071 93.6196 221.602 90.7975 221.133 87.8527C220.665 84.9079 220.196 82.0859 219.727 79.3865C218.672 73.7423 217.383 68.3435 215.508 63.0675C213.633 57.9141 211.172 52.8834 208.125 48.5889C205.079 44.1717 201.211 40.3681 196.993 37.3006C192.657 34.2331 187.969 31.7791 182.93 30.0613C172.852 26.503 162.071 25.276 151.29 25.1533C145.899 25.1533 140.625 25.3987 135.352 26.3803C130.079 27.2392 124.922 28.5889 120 30.4294C115.079 32.2699 110.274 34.6012 105.938 37.546C103.711 39.0184 101.719 40.6135 99.8442 42.454C97.9692 44.2944 96.2114 46.1349 94.9224 48.0981V48.0981Z" fill="#895B2E"/>
<path d="M90.9381 45.2761C78.0474 66.135 93.399 146.258 174.376 135.46C182.93 134.356 211.407 118.405 230.626 140.736C241.055 153.006 226.993 184.049 230.626 177.546C234.727 170.429 250.43 142.945 226.876 100.614C219.376 86.9939 231.797 21.5951 150.704 20.7362C119.649 20.6135 99.4927 31.4111 90.9381 45.2761" fill="#BA8449"/>
<g opacity="0.15">
<path d="M88.7911 50.3472C112.111 34.6417 182.658 35.746 205.158 73.4147C220.158 98.4454 192.736 160.286 182.541 168.139C172.463 175.991 158.4 182.863 121.369 173.537C89.963 165.685 137.19 135.133 100.393 130.715C66.7598 126.666 63.3614 67.5252 88.7911 50.3472" fill="#E3AB5E"/>
</g>
<g opacity="0.25">
<path d="M153.985 111.124C153.985 112.964 150.586 114.56 146.368 114.56C142.149 114.56 138.75 113.087 138.75 111.124C138.75 109.283 142.149 107.688 146.368 107.688C150.586 107.811 153.985 109.283 153.985 111.124Z" fill="#E3AB5E"/>
</g>
<path d="M140.508 101.104C142.266 99.8773 151.641 100.245 152.813 101.595C153.985 102.822 156.563 107.975 153.633 110.184C152.579 110.92 152.579 107.853 150.235 108.344C147.423 108.957 148.946 112.761 146.719 112.761C143.321 112.638 146.602 108.589 143.673 108.098C141.446 107.607 140.977 109.939 139.923 109.693C136.524 108.957 138.048 102.822 140.508 101.104" fill="#F8A38F"/>
<path d="M145.571 100.374C143.344 100.374 141.235 100.62 140.532 101.11C138.071 102.828 136.547 108.963 139.829 109.577H139.946C140.766 109.577 141.235 107.859 142.993 107.859H143.579C146.508 108.35 143.344 112.521 146.626 112.521C148.735 112.521 147.212 108.84 150.141 108.227H150.61C152.251 108.227 152.485 110.19 153.188 110.19C153.305 110.19 153.422 110.19 153.54 110.067C156.587 107.859 154.008 102.706 152.719 101.479C152.133 100.865 148.735 100.374 145.571 100.374M145.571 101.233C149.087 101.233 151.782 101.724 152.251 102.092C152.954 102.828 154.36 105.528 154.126 107.491C154.008 108.227 153.774 108.84 153.305 109.209C153.305 109.086 153.188 109.086 153.071 108.963C152.602 108.35 151.899 107.368 150.61 107.368C150.376 107.368 150.141 107.368 150.024 107.491C148.032 107.982 147.68 109.577 147.329 110.681C147.094 111.785 146.977 111.785 146.626 111.785C145.688 111.785 145.688 111.54 145.688 110.436C145.688 109.331 145.688 107.613 143.579 107.245H142.876C141.587 107.245 140.766 108.104 140.18 108.595C140.063 108.718 139.829 108.963 139.712 108.963C139.243 108.84 138.774 108.595 138.54 107.614C138.188 105.896 139.36 102.951 140.649 101.969C141.352 101.479 142.993 101.233 145.571 101.233" fill="#F8A38F"/>
<g opacity="0.25">
<path d="M218.671 133.313C222.187 156.871 194.062 186.442 156.21 192.577C118.359 198.589 90.4681 163.252 86.9525 139.571C83.4369 116.012 106.64 124.969 144.492 118.957C182.343 112.945 215.156 109.755 218.671 133.313" fill="#F7E8D0"/>
</g>
<g opacity="0.5">
<path d="M119.901 169.174C118.846 167.456 118.26 165.371 117.674 163.407L115.917 157.518C114.745 153.591 113.456 149.665 111.698 145.984C109.94 142.303 107.714 138.867 104.901 136.291C102.089 133.714 98.6901 131.996 95.0573 131.26C93.7683 130.769 93.1823 129.42 93.6511 128.193C94.1198 126.966 95.2917 126.352 96.3464 126.598C104.784 128.683 113.573 129.665 122.245 129.788C130.917 129.91 139.823 129.42 148.612 128.315C157.401 127.211 166.073 125.616 174.628 123.53C183.182 121.444 191.737 118.99 200.057 116.045C201.346 115.555 202.635 116.291 202.987 117.518C203.339 118.499 202.987 119.481 202.284 120.094C202.05 120.34 201.581 120.708 201.229 121.076C200.878 121.444 200.526 121.935 200.175 122.303C199.471 123.162 198.768 124.144 198.065 125.125C196.659 127.088 195.37 129.052 194.198 131.137C191.62 135.186 189.276 139.358 187.05 143.653C184.823 147.947 182.596 152.242 180.604 156.536C179.55 158.745 178.612 160.953 177.792 163.162C177.323 164.266 176.971 165.371 176.503 166.598C176.268 167.211 176.151 167.702 176.034 168.315V168.561C176.034 168.683 176.034 168.683 175.917 168.806C175.917 168.929 175.8 169.052 175.682 169.052C175.565 169.174 175.448 169.297 175.214 169.42C174.979 169.665 174.628 169.788 174.393 169.91C172.167 170.892 169.823 171.383 167.596 171.874C165.37 172.364 163.026 172.733 160.682 172.978C155.995 173.591 151.425 174.082 146.737 174.205C142.05 174.45 137.362 174.45 132.792 173.96C130.448 173.714 128.104 173.346 125.878 172.733C124.706 172.364 123.651 171.996 122.596 171.383C121.542 170.892 120.604 170.156 119.901 169.174M120.018 169.052C120.604 170.033 121.659 170.769 122.714 171.26C123.768 171.751 124.823 172.119 125.995 172.487C128.221 173.101 130.565 173.469 132.909 173.591C137.596 173.96 142.167 173.96 146.854 173.714C151.542 173.469 156.112 172.855 160.682 172.242C162.909 171.874 165.253 171.506 167.479 170.892C169.706 170.279 172.05 169.788 174.042 168.806C174.276 168.683 174.51 168.561 174.745 168.315C174.979 168.193 175.096 168.07 175.096 167.947C175.214 167.334 175.331 166.72 175.565 166.107C175.917 164.88 176.268 163.775 176.62 162.548C177.44 160.217 178.26 158.009 179.198 155.677C181.073 151.137 182.948 146.72 184.94 142.303C186.932 137.886 189.042 133.469 191.268 129.174C192.323 126.966 193.495 124.88 194.784 122.671C195.37 121.567 196.073 120.463 196.776 119.481C197.128 118.99 197.479 118.377 197.831 117.886C198.3 117.395 198.651 116.782 199.237 116.291L201.464 120.463C192.909 123.53 184.354 125.984 175.565 128.07C166.776 130.156 157.987 131.874 149.081 132.978C140.175 134.082 131.151 134.696 122.128 134.45C113.104 134.205 104.081 133.101 95.1745 130.892L96.4636 125.984C100.331 128.438 103.846 130.769 106.542 134.082C109.237 137.395 111.112 141.199 112.635 145.125C114.042 149.052 115.214 153.101 116.151 157.027C116.62 158.99 117.206 161.076 117.674 163.039C118.378 165.371 118.964 167.334 120.018 169.052" fill="#D8CAB2"/>
</g>
<g opacity="0.5">
<path d="M119.921 169.188C118.866 167.47 118.28 165.507 117.694 163.544C117.108 161.58 116.639 159.617 116.053 157.654C114.882 153.728 113.71 149.801 111.952 145.998C110.311 142.317 108.085 138.881 105.389 136.182C102.577 133.36 99.1784 131.396 95.5456 130.537V130.415C94.9596 130.169 94.6081 129.433 94.8425 128.82C95.0768 128.206 95.6628 127.838 96.2487 127.961C104.803 130.047 113.592 131.028 122.499 131.151C131.405 131.274 140.194 130.783 148.983 129.679C157.772 128.574 166.444 126.856 175.116 124.893C183.788 122.807 192.342 120.353 200.663 117.409C201.249 117.163 201.952 117.531 202.186 118.145C202.303 118.636 202.186 119.126 201.835 119.494C201.132 120.108 200.311 121.09 199.608 121.948C198.905 122.807 198.202 123.912 197.499 124.771C196.21 126.734 194.921 128.82 193.749 130.906C191.288 134.955 188.944 139.249 186.717 143.544C184.491 147.838 182.382 152.133 180.507 156.55L177.694 163.175C177.225 164.28 176.874 165.384 176.522 166.611C176.288 167.225 176.171 167.715 176.053 168.329C175.936 168.82 175.585 168.942 175.35 169.188C175.116 169.433 174.764 169.556 174.53 169.679C172.303 170.66 169.96 171.151 167.733 171.642C165.507 172.133 163.163 172.501 160.819 172.869C156.249 173.482 151.561 173.973 146.874 174.218C142.186 174.464 137.499 174.464 132.928 173.973C130.585 173.728 128.241 173.36 126.014 172.746C124.842 172.378 123.788 172.01 122.733 171.519C121.561 170.906 120.507 170.169 119.921 169.188M119.921 169.065C120.507 170.047 121.561 170.783 122.616 171.396C123.671 171.887 124.725 172.255 125.897 172.623C128.124 173.237 130.467 173.605 132.811 173.728C137.499 174.218 142.069 174.096 146.757 173.85C151.444 173.605 156.014 173.114 160.702 172.378C162.928 172.01 165.272 171.642 167.616 171.028C169.842 170.537 172.186 169.924 174.178 168.942C174.413 168.82 174.647 168.697 174.882 168.452C175.116 168.329 175.35 168.083 175.35 167.961C175.467 167.347 175.585 166.734 175.819 166.12C176.171 164.893 176.522 163.789 176.991 162.685C177.811 160.353 178.749 158.145 179.686 155.936C181.561 151.396 183.553 147.102 185.663 142.685C187.772 138.267 189.882 133.973 192.225 129.679C193.397 127.47 194.569 125.384 195.858 123.421C196.444 122.317 197.147 121.335 197.85 120.353C198.553 119.372 199.257 118.39 200.311 117.409L201.483 119.617C193.046 122.685 184.374 125.139 175.702 127.225C167.03 129.31 158.241 130.906 149.335 132.133C140.428 133.237 131.522 133.85 122.499 133.605C113.592 133.36 104.569 132.378 95.78 130.292L96.3659 127.961C100.233 129.556 103.749 132.01 106.444 135.2C109.139 138.39 111.132 142.071 112.655 145.875C114.178 149.679 115.35 153.605 116.405 157.654C116.874 159.617 117.46 161.58 118.046 163.666C118.28 165.384 118.866 167.347 119.921 169.065" fill="#D8CAB2"/>
</g>
<path d="M120 169.08C125.977 178.896 174.844 172.147 175.665 168.221C177.774 158.282 195.352 123.19 200.977 118.282C190.899 121.963 138.516 139.509 95.9771 128.834C115.079 135.583 115.313 161.472 120 169.08Z" fill="#333333"/>
<path d="M200.801 118.466C192.95 121.288 159.903 132.454 125.684 132.454C115.606 132.454 105.528 131.472 95.8013 129.141C115.02 135.644 115.254 161.656 119.942 169.264C122.168 172.945 130.723 174.294 140.45 174.294C156.153 174.294 175.02 170.859 175.606 168.405C177.715 158.344 195.176 123.252 200.801 118.466ZM194.239 123.252C186.622 135.276 175.606 158.466 173.379 167.178C170.45 168.896 155.333 171.84 140.45 171.84C128.497 171.84 123.106 169.755 121.934 167.914C120.762 166.074 119.825 162.638 118.887 158.712C116.895 151.227 114.083 140.92 107.403 133.804C113.262 134.54 119.356 134.908 125.801 134.908C153.692 134.785 180.997 127.423 194.239 123.252Z" fill="#333333"/>
<path d="M140.039 174.233C129.961 174.233 123.399 172.761 120.821 169.816C120.586 169.571 120.586 168.098 121.758 165.276C124.571 158.528 133.243 146.994 148.243 146.012C149.297 146.012 150.235 145.89 151.172 145.89C168.75 145.89 179.297 155.215 179.297 156.81C179.063 157.301 178.829 158.037 178.477 159.018C177.539 161.35 176.133 165.031 174.844 168.957C173.321 170.552 155.743 174.233 140.039 174.233" fill="#FCD4C3"/>
<path d="M151.172 145.276C150.118 145.276 149.18 145.276 148.125 145.399C127.618 146.748 118.125 167.975 120.235 170.552C123.282 173.988 131.133 175.215 140.04 175.215C155.86 175.215 174.961 171.411 175.547 169.571C177.305 164.049 179.297 159.509 180.118 157.301C180.821 155.092 168.985 145.153 151.172 145.276M151.172 146.871C166.875 146.871 177.422 154.724 178.477 157.055C178.243 157.546 178.008 158.16 177.774 158.896C176.836 161.227 175.43 164.663 174.141 168.589C171.68 170.061 155.274 173.374 140.04 173.374C130.547 173.374 123.985 171.902 121.524 169.325C121.407 168.466 122.227 165.031 125.157 160.736C127.735 156.81 135.235 147.607 148.243 146.871H151.172" fill="#F8A38F"/>
<path d="M120.567 169.223C119.161 175.849 157.95 143.334 178.81 158.917C183.146 152.904 160.06 142.72 146.583 145.052C135.216 147.137 123.497 154.745 120.567 169.223" fill="#FCD4C3"/>
<path d="M128.438 134.233C130.43 137.914 134.063 155.828 135.586 156.196C137.11 156.564 146.719 159.387 148.008 158.773C149.415 158.16 149.297 154.724 150.704 155.706C151.875 156.564 152.461 158.16 153.633 157.546C155.743 156.442 161.954 152.393 163.008 150.675C163.946 148.834 163.829 138.65 163.008 130.552C159.024 132.515 135.469 135.092 128.438 134.233" fill="#FFF7E3"/>
<path d="M163.067 130.614C159.551 132.209 141.153 134.417 131.895 134.417C130.489 134.417 129.434 134.417 128.497 134.295C130.489 137.975 134.122 155.89 135.645 156.258C137.051 156.626 145.02 158.957 147.481 158.957C147.715 158.957 147.95 158.957 148.067 158.834C149.239 158.344 149.356 155.644 150.293 155.644C150.411 155.644 150.645 155.644 150.762 155.89C151.817 156.503 152.286 157.853 153.223 157.853C153.34 157.853 153.575 157.853 153.692 157.73C155.801 156.626 162.012 152.577 163.067 150.859C164.122 149.018 163.887 138.834 163.067 130.614ZM162.481 131.718C163.184 140.061 163.184 148.896 162.481 150.368C161.661 151.841 156.036 155.644 153.458 156.994H153.34C153.106 156.994 152.754 156.626 152.52 156.258C152.168 155.89 151.817 155.522 151.348 155.153C150.997 154.908 150.762 154.785 150.411 154.785C149.356 154.785 149.004 155.89 148.653 156.748C148.418 157.239 148.184 157.975 147.833 158.098H147.481C145.489 158.098 139.512 156.38 137.051 155.767C136.583 155.644 136.231 155.521 135.997 155.521C135.293 154.663 133.77 148.896 132.598 144.724C131.543 140.92 130.606 137.362 129.786 135.276H132.012C140.801 135.276 157.208 133.313 162.481 131.718" fill="#FFDC99"/>
<path d="M131.193 142.883C130.607 136.258 159.787 134.049 163.419 134.663C163.419 133.067 163.185 132.086 163.185 130.245C158.38 132.822 132.13 135.521 128.615 134.417C128.966 135.153 130.255 138.834 131.193 142.883" fill="#EADCBE"/>
<path d="M145.732 137.875C146.318 139.347 146.904 140.697 147.373 142.169L148.779 146.586L150.068 151.004L151.357 155.421L149.365 156.034L148.428 151.494L147.373 146.955L146.318 142.537C145.85 141.065 145.498 139.593 145.029 138.243L145.732 137.875V137.875Z" fill="#FFDC99"/>
<g opacity="0.4">
<path d="M47.0912 34.0074C62.56 38.1791 60.0991 66.1546 69.2397 68.3632C78.4975 70.5718 90.5678 45.2957 91.7397 39.7742C73.9272 31.7988 65.6069 22.4736 52.8334 25.173C48.6147 26.0319 42.7553 32.7804 47.0912 34.0074" fill="#FCD4C3"/>
</g>
<g opacity="0.5">
<path d="M89.962 115.869C109.415 117.464 125.47 118.323 131.212 112.065C136.954 105.807 139.064 78.0773 148.439 78.8135C156.407 79.427 159.103 115.501 164.259 116.482C169.415 117.587 205.86 128.016 215.001 118.2C224.025 108.384 228.243 102.249 226.134 96.3595C224.025 90.4699 170.704 71.4515 159.806 70.3472C148.907 69.243 75.3136 78.9362 73.4386 83.7215C71.5636 88.6295 69.5714 87.8933 69.923 93.0466C70.6261 102.985 70.5089 114.274 89.962 115.869" fill="#E3AB5E"/>
</g>
<path d="M144.493 74.8466C145.899 74.8466 151.407 74.3558 152.696 75.4601C159.727 81.227 159.493 104.908 166.875 112.27C173.438 118.896 209.297 123.681 215.508 116.196C221.719 108.712 230.86 85.8896 232.969 84.1718C235.079 82.5767 239.766 81.3497 241.172 79.0184C242.579 76.8098 241.407 66.7484 238.125 67.2392C234.844 67.73 228.633 69.8159 224.766 68.7116C220.899 67.4846 202.032 55.092 154.571 62.5767C150 63.3129 145.43 62.5767 142.266 61.7178C139.102 60.8589 121.289 50.0613 73.5942 57.1779C68.9067 57.9141 62.3442 55.7055 60.0004 55.9509C57.6567 56.1963 56.9535 63.9264 57.891 65.8895C58.8285 67.8527 63.7504 69.5705 64.3364 72.0245C64.9223 74.4785 69.2582 98.5276 80.5082 108.466C92.4614 119.018 122.93 111.656 125.625 109.693C137.696 100.736 140.391 74.8466 144.493 74.8466Z" fill="#333333"/>
<path d="M103.404 54.8748C95.0839 54.8748 85.123 55.4883 73.4042 57.3288C72.7011 57.4515 71.998 57.4515 71.2949 57.4515C67.1933 57.4515 62.3886 56.1018 60.162 56.1018H59.8105C57.4667 56.3472 56.7636 64.0773 57.7011 66.0405C58.6386 68.1264 63.5605 69.7215 64.1464 72.1755C64.7324 74.6294 69.0683 98.6785 80.3183 108.617C85.0058 112.789 92.7402 114.139 100.475 114.139C112.193 114.139 123.795 111.071 125.435 109.844C137.623 100.764 140.435 74.8748 144.537 74.8748C145.123 74.8748 146.646 74.7521 148.053 74.7521C149.928 74.7521 151.92 74.8748 152.623 75.3656C159.654 81.1325 159.42 104.813 166.803 112.175C171.021 116.347 187.193 119.906 199.85 119.906C206.998 119.906 213.092 118.801 215.318 116.102C221.529 108.617 230.67 85.7951 232.779 84.0773C234.889 82.3595 239.576 81.2552 240.982 78.9239C242.271 76.7153 241.217 67.1448 238.053 67.1448H237.818C235.24 67.5129 230.787 68.8626 227.154 68.8626C226.217 68.8626 225.279 68.7399 224.459 68.4945C221.412 67.5129 209.576 60.0282 182.623 60.0282C174.537 60.0282 165.162 60.6417 154.264 62.3595C152.975 62.6049 151.568 62.6049 150.396 62.6049C147.232 62.6049 144.303 62.1141 142.076 61.5006C139.732 61.2552 128.951 54.8748 103.404 54.8748M103.404 57.3288C124.615 57.3288 135.514 61.746 139.498 63.4638C140.318 63.8319 140.904 64.0773 141.49 64.2C143.6 64.6908 146.764 65.427 150.396 65.427C151.803 65.427 153.326 65.3043 154.615 65.0589C164.576 63.4638 173.951 62.7276 182.623 62.7276C204.889 62.7276 216.49 67.881 221.529 70.2123C222.584 70.7031 223.287 70.9485 223.873 71.1939C224.928 71.562 225.982 71.6847 227.271 71.6847C229.85 71.6847 232.662 71.0712 235.006 70.5804C236.06 70.335 237.115 70.0896 237.935 69.9669C238.99 71.1939 239.693 76.5926 239.107 78.065C238.639 78.8012 236.646 79.7828 235.24 80.3963C233.834 81.0098 232.545 81.6233 231.607 82.3595C230.318 83.3411 229.029 85.9178 225.279 93.7706C221.646 101.255 217.193 110.58 213.795 114.629C212.623 116.102 208.404 117.574 199.967 117.574C187.662 117.574 171.959 114.139 168.443 110.58C165.162 107.39 163.521 99.9055 161.881 92.6663C160.006 84.5681 158.248 76.9607 154.146 73.5252C153.092 72.6663 151.451 72.2982 148.17 72.2982H144.537C141.256 72.2982 139.85 76.3472 137.389 83.7092C134.693 91.8074 130.826 102.728 124.146 107.758C122.623 108.74 111.607 111.685 100.475 111.685C91.9199 111.685 85.4745 109.967 81.8417 106.777C77.3886 102.85 71.1777 93.6479 66.7245 72.6663C66.6074 72.1755 66.4902 71.8074 66.4902 71.562C65.9042 69.2307 63.7949 67.881 62.037 66.654C61.3339 66.1632 60.162 65.3043 59.9277 64.9362C59.4589 63.8319 59.9277 59.7828 60.6308 58.4331C61.4511 58.4331 62.623 58.6785 63.912 58.9239C66.1386 59.292 68.9511 59.7828 71.5292 59.7828C72.3495 59.7828 73.287 59.7828 73.9902 59.5374C84.4199 58.1877 94.3808 57.3288 103.404 57.3288" fill="#1A1A1A"/>
<g opacity="0.5">
<path d="M77.3444 72.454C76.2897 73.9264 75.5866 95.6442 84.3757 101.534C90.1179 105.46 114.493 104.601 119.415 101.779C127.032 97.2392 134.532 76.6257 132.423 73.681C128.907 68.773 103.594 62.2699 84.6101 67.4233C82.2663 67.9141 78.6335 70.6135 77.3444 72.454V72.454Z" stroke="#333333" stroke-width="4" stroke-miterlimit="10"/>
</g>
<path d="M77.3444 72.3926C76.2897 73.865 75.5866 95.5828 84.3757 101.472C90.1179 105.399 114.493 104.54 119.415 101.718C127.032 97.1779 134.532 76.5644 132.423 73.6196C128.907 68.7116 103.594 62.2086 84.6101 67.362C82.2663 67.9755 78.6335 70.5521 77.3444 72.3926" fill="white"/>
<g opacity="0.5">
<path d="M220.54 81.9178C221.478 83.5129 219.368 105.108 209.993 109.893C203.782 112.961 179.759 108.789 175.306 105.353C168.274 99.8319 163.353 78.3595 165.814 75.6601C169.915 71.243 195.814 68.2982 213.978 75.9055C216.204 76.7644 219.485 79.9546 220.54 81.9178Z" stroke="#333333" stroke-width="4" stroke-miterlimit="10"/>
</g>
<path d="M220.547 81.9632C221.485 83.5583 219.376 105.153 210.001 109.939C203.79 113.006 179.766 108.834 175.313 105.399C168.282 99.8773 163.36 78.4049 165.821 75.7055C169.922 71.2884 195.821 68.3436 213.985 75.9509C216.211 76.8098 219.376 79.8773 220.547 81.9632Z" fill="white"/>
<path d="M105.118 85.6442C104.532 90.4295 102.188 93.9877 99.9614 93.6196C97.7349 93.2515 96.563 89.2025 97.1489 84.4172C97.7349 79.6319 100.079 76.0736 102.305 76.4417C104.532 76.8098 105.704 80.8589 105.118 85.6442ZM198.516 91.043C198.985 95.8282 197.579 99.8773 195.469 100.123C193.243 100.368 191.133 96.6871 190.665 91.9019C190.196 87.1166 191.602 83.0675 193.711 82.8221C195.821 82.6994 197.93 86.3804 198.516 91.043Z" fill="black"/>
<g opacity="0.3">
<path d="M60.0884 63.0061C62.7837 64.8466 65.2446 63.7423 65.8306 67.4233C66.4165 71.1043 74.5024 103.006 84.5806 106.687C101.104 112.699 121.963 106.81 124.776 104.969C127.588 103.129 140.831 72.0859 143.057 70.8589C145.284 69.6319 152.315 70.9816 153.838 71.7178C158.409 73.8037 166.846 107.423 169.073 109.141C179.268 116.626 211.963 116.012 213.487 114.049C215.127 111.963 227.315 82.638 229.542 80.9202C232.706 78.3436 240.088 76.6258 240.323 77.7301C240.557 78.8344 234.346 79.9387 232.471 82.2699C230.596 84.7239 218.292 112.822 214.424 115.276C210.557 117.73 181.963 121.779 167.432 111.104C160.518 105.951 157.823 75.3988 152.315 73.681C148.799 72.5767 146.104 72.6994 143.526 73.4356C140.127 75.7669 135.323 101.779 125.127 108.282C121.026 110.859 89.2681 117.362 79.7759 106.933C62.0806 87.546 67.4712 70.2454 61.729 67.7914C57.8618 66.0736 57.0415 63.865 57.0415 62.3926C57.3931 60.7975 58.6821 62.0245 60.0884 63.0061" fill="#333333"/>
</g>
<g opacity="0.3">
<path d="M60.4104 56.5031C58.5354 55.7669 68.3792 60.0614 72.012 59.816C75.6448 59.5706 81.7386 56.8712 83.7307 56.2577C85.4886 55.6442 74.5901 57.7301 71.8948 57.6074C69.1995 57.4847 61.4651 56.8712 60.4104 56.5031" fill="#333333"/>
</g>
<g opacity="0.3">
<path d="M136.407 62.2699C139.805 63.865 141.329 67.9141 144.61 68.2822C147.891 68.6503 151.875 69.2638 153.75 68.1595C155.625 67.0552 160.313 64.4785 161.602 64.2331C163.008 63.9877 151.407 65.8282 147.071 65.4601C142.735 64.9693 137.696 62.3926 136.407 62.2699" fill="#333333"/>
</g>
<g opacity="0.3">
<path d="M219.581 66.9632C218.174 66.3497 224.737 71.8712 226.729 71.6258C228.721 71.3804 232.237 69.0491 233.76 68.4356C234.932 67.9448 229.073 69.6626 227.315 69.2945C225.557 69.1718 220.987 67.5767 219.581 66.9632Z" fill="#333333"/>
</g>
<g opacity="0.3">
<path d="M73.653 69.2331C82.3249 60.2761 102.95 63.3436 106.7 64.0798C81.9733 65.9202 81.5046 67.8834 77.1687 72.4233C76.5827 75.9816 75.7624 87.7607 79.6296 98.0675C75.2937 95.6135 70.7233 72.3006 73.653 69.2331" fill="#333333"/>
</g>
<g opacity="0.3">
<path d="M225.305 78.8933C217.805 68.8319 197.063 68.9546 193.196 69.3227C217.454 74.5988 217.688 76.562 221.438 81.7153C221.672 85.2736 220.969 97.0528 215.93 106.746C220.383 104.783 227.766 82.2061 225.305 78.8933Z" fill="#333333"/>
</g>
<path d="M77.5938 87.3313C78.4141 76.7791 79.3516 68.1902 99.3906 67.5767C115.445 67.0859 128.219 71.0123 129.977 75.0613C131.148 77.638 130.211 88.9264 122.242 99.2331C127.398 94.4479 135.602 75.4294 132.086 73.0982C119.078 64.3865 93.1797 64.1411 83.5703 67.6994C81.8125 68.3129 79 70.3988 77.125 72.6074C76.7734 75.3067 76.7734 85.8589 77.5938 87.3313" fill="#D0DDDC"/>
<path d="M78.1457 88.0982C81.1926 108.712 117.169 102.454 119.279 101.595C119.161 102.699 100.411 108.221 84.7082 101.84C78.3801 99.3865 77.9113 85.7669 78.1457 88.0982" fill="#D0DDDC"/>
<path d="M218.856 96.5485C219.325 85.8736 219.325 77.4074 199.638 74.2172C183.817 71.6405 170.692 73.8491 168.348 77.6528C166.942 79.9841 166.473 91.3951 173.27 102.683C168.7 97.162 162.723 77.4074 166.591 75.4442C180.536 68.4503 206.317 71.5178 215.341 76.3031C216.981 77.162 219.677 79.4933 221.2 82.0699C221.083 84.6466 219.911 95.1988 218.856 96.5485" fill="#D0DDDC"/>
<path d="M218.184 97.1938C212.793 117.194 177.754 106.396 175.762 105.292C175.762 106.396 193.691 114.249 210.098 110.077C216.66 108.359 218.887 94.8626 218.184 97.1938Z" fill="#D0DDDC"/>
<g opacity="0.25">
<path d="M104.502 79.5092C104.502 78.8957 104.034 78.2822 103.331 78.2822C102.627 78.2822 102.159 78.773 102.159 79.5092C102.159 80.2454 102.627 80.7362 103.331 80.7362C104.034 80.7362 104.502 80.2454 104.502 79.5092Z" fill="white"/>
</g>
<g opacity="0.25">
<path d="M197.081 85.2761C197.081 84.6626 196.612 84.0491 195.909 84.0491C195.323 84.0491 194.737 84.5399 194.737 85.2761C194.737 86.0123 195.206 86.5031 195.909 86.5031C196.495 86.5031 197.081 85.8896 197.081 85.2761Z" fill="white"/>
</g>
<g opacity="0.1">
<path d="M60.7329 61.6871C63.5454 65 65.3032 65.3681 69.0532 64.8773C105.499 59.9693 125.655 60.092 135.616 69.7853C137.725 71.8712 136.553 63.5276 132.569 62.4233C101.866 53.9571 79.6001 61.5644 74.9126 62.1779C70.1079 62.9141 66.7095 61.8098 60.7329 61.6871" fill="#D0DDDC"/>
</g>
<g opacity="0.1">
<path d="M161.514 66.5951C160.694 67.454 161.045 76.2883 165.03 72.9755C176.514 63.4049 200.537 65.6135 217.295 71.5031C214.6 65.9816 195.03 62.1779 184.014 62.3006C178.741 62.546 163.741 64.1411 161.514 66.5951Z" fill="#D0DDDC"/>
</g>
<path d="M230.86 73.6196C230.86 73.9877 228.985 74.2331 226.758 74.2331C224.532 74.2331 222.657 73.9877 222.657 73.6196C222.657 73.2515 224.532 73.0061 226.758 73.0061C229.102 73.0061 230.86 73.3742 230.86 73.6196ZM72.8913 63.0675C72.8913 63.4356 71.0163 63.4356 68.7897 63.0675C66.5632 62.6994 64.8053 62.0859 64.9225 61.7178C65.0397 61.3497 66.7975 61.3497 69.0241 61.7178C71.2507 61.9632 73.0085 62.5767 72.8913 63.0675Z" fill="#D0DDDC"/>
<path d="M299.813 259.676C299.11 252.191 293.836 248.879 289.032 248.879C286.805 248.879 285.047 249.492 284.344 249.86L283.407 250.351L282.586 250.964C281.414 251.823 279.422 253.173 277.664 253.787C277.547 252.314 277.664 250.351 277.899 248.633V248.388C279.188 235.259 276.61 227.529 270.047 225.566C268.993 225.198 267.821 225.075 266.649 225.075C262.664 225.075 259.149 227.038 256.922 228.756C255.047 226.179 251.766 224.829 247.782 224.829C241.805 224.829 237 227.774 235.243 232.437C235.008 232.928 234.774 233.664 234.539 234.645C231.024 226.547 223.875 223.48 217.196 223.48C210.868 223.48 204.774 226.056 202.547 227.897C202.43 228.02 202.313 228.02 202.196 228.142C196.219 232.56 191.532 238.204 188.25 244.952C186.61 239.185 183.094 233.664 176.883 229.615L176.766 229.492C176.532 229.369 176.414 229.247 176.297 229.247C182.508 217.836 187.899 202.621 184.618 188.142C181.102 172.682 172.43 170.474 167.625 170.474C165.633 170.474 163.524 170.842 161.414 171.578H161.18C152.039 175.382 148.055 181.026 147.118 182.375C146.18 183.848 136.219 199.799 133.758 223.112C133.524 225.688 133.172 228.388 132.938 231.087C131.532 229.001 129.188 227.038 125.555 225.934C124.383 225.566 123.211 225.443 122.039 225.443C117 225.443 112.899 228.633 110.672 230.842C108.797 227.897 105.75 226.056 102.352 225.934H101.532C96.141 225.934 91.9223 228.388 88.7582 231.21C86.766 227.529 83.016 225.198 78.6801 225.198H76.9223C70.9457 225.198 66.2582 228.142 64.3832 233.05C64.266 233.418 64.0317 233.909 63.9145 234.523C59.227 228.388 53.2504 225.566 45.1645 225.566H44.3442C39.3051 225.688 26.8832 227.897 19.1489 245.934C17.977 248.756 17.0395 251.578 16.3363 254.277C14.6957 253.418 13.0551 253.296 12.0004 253.296C8.01604 253.296 4.96916 255.627 3.56291 257.958C2.39104 259.799 -1.35896 266.179 0.516037 272.56C1.57072 275.995 3.79729 278.572 7.07854 279.922C10.0082 281.148 13.641 282.253 16.3363 283.112C17.977 287.161 21.0238 291.701 26.4145 295.995C30.1645 299.063 35.0863 300.535 40.7113 300.535C50.3207 300.535 59.5785 296.241 60.516 295.75L60.8676 295.504L60.9848 295.382C62.8598 297.345 65.2035 298.817 68.2504 299.431C69.1879 299.676 70.3598 299.799 71.766 299.799C76.9223 299.799 80.5551 296.977 83.9535 291.823C86.6488 296.363 91.6879 298.817 97.5473 298.817C97.8989 298.817 98.1332 299.063 98.602 299.063C101.649 299.063 105.633 297.958 108.797 292.437C111.493 297.467 116.414 300.412 122.274 300.412C127.43 300.412 132 298.204 132.821 297.713L133.055 297.59C134.813 296.609 136.219 295.75 137.391 295.136C141.258 297.345 147.118 299.676 154.383 299.676C155.672 299.676 156.844 299.676 158.133 299.431H158.836C174.071 296.241 184.032 292.437 190.008 289.492C194.11 294.4 200.789 299.063 210.164 299.799C211.219 299.921 212.274 299.921 213.329 299.921C221.063 299.921 227.274 297.59 231.844 295.136C233.25 296.731 235.125 298.204 237.469 299.185C238.875 299.799 240.399 300.044 241.805 300.044C251.297 300.044 255.75 288.265 256.922 284.216L259.149 277.836C261.141 280.044 263.719 281.885 267 282.866C268.758 283.357 270.75 283.725 272.625 283.725C283.055 283.725 293.133 275.995 294.657 274.645C297.352 271.823 300.399 266.67 299.813 259.676" fill="white"/>
<path d="M204.082 262.961C204.082 262.961 202.793 258.053 207.715 248.728C212.637 239.402 216.387 244.433 216.387 244.433C216.387 244.433 220.606 249.218 215.801 256.335C210.996 263.452 204.082 262.961 204.082 262.961ZM166.465 269.709C160.84 285.047 147.246 278.789 147.246 278.789C147.246 278.789 145.723 273.268 150.176 257.93C154.629 242.593 164.942 248.605 164.942 248.605C164.942 248.605 172.09 254.372 166.465 269.709ZM156.27 205.292C156.27 205.292 164.707 182.102 166.817 193.39C168.926 204.679 149.004 238.175 149.004 238.175C149.239 230.691 156.27 205.292 156.27 205.292ZM34.9808 262.961C35.3323 248.114 44.5901 241.611 47.8714 244.801C51.1526 247.991 49.9808 255.108 43.7698 259.402C37.7933 263.82 34.9808 262.961 34.9808 262.961ZM291.973 260.507C291.504 255.476 287.168 257.317 287.168 257.317C287.168 257.317 280.254 262.961 274.16 262.347C268.067 261.734 270.059 247.501 270.059 247.501C270.059 247.501 271.348 234.372 267.832 233.267C264.2 232.163 259.864 236.703 259.864 236.703C259.864 236.703 254.356 243.083 251.778 251.182L251.075 251.427C251.075 251.427 251.895 237.194 250.957 233.881C250.254 232.286 243.692 232.409 242.637 235.231C241.582 238.053 236.309 258.053 235.957 266.519C235.957 266.519 225.645 275.599 216.739 277.194C207.715 278.666 205.606 272.777 205.606 272.777C205.606 272.777 229.981 265.66 229.16 245.292C228.34 224.924 209.473 232.409 207.364 234.126C205.254 235.721 194.356 242.715 191.075 261.856C190.957 262.47 190.723 265.415 190.723 265.415C190.723 265.415 181.231 272.041 176.075 273.758C176.075 273.758 190.723 247.869 172.793 236.09C164.707 230.936 158.145 241.734 158.145 241.734C158.145 241.734 182.403 213.513 177.012 189.587C174.434 178.175 169.043 176.948 164.004 178.789C156.387 181.979 153.575 186.519 153.575 186.519C153.575 186.519 143.731 201.366 141.504 223.574C139.278 245.783 135.879 272.409 135.879 272.409C135.879 272.409 131.192 277.194 126.973 277.439C122.637 277.685 124.629 264.065 124.629 264.065C124.629 264.065 127.91 243.329 127.676 239.771C127.442 236.212 127.207 234.372 123.223 233.145C119.356 231.918 115.02 237.194 115.02 237.194C115.02 237.194 103.653 255.231 102.715 257.93L102.129 259.034L101.543 258.298C101.543 258.298 109.512 233.758 101.895 233.39C94.2776 233.022 89.2386 242.102 89.2386 242.102C89.2386 242.102 80.5667 257.439 80.2151 259.157L79.6292 258.421C79.6292 258.421 83.262 240.629 82.5589 236.212C81.8558 231.795 77.8714 232.777 77.8714 232.777C77.8714 232.777 72.8323 232.163 71.5433 235.599C70.2542 239.034 65.4495 261.366 64.8636 268.482C64.8636 268.482 52.3245 277.93 44.1214 277.93C35.9183 278.053 36.7386 272.409 36.7386 272.409C36.7386 272.409 66.973 261.611 58.7698 240.139C55.0198 234.617 50.8011 232.899 44.7073 233.022C38.6136 233.145 31.4651 237.071 26.5433 248.482C24.1995 254.004 23.262 259.157 23.262 263.083C23.262 263.083 17.637 264.188 14.7073 261.734C11.7776 259.28 10.137 261.734 10.137 261.734C10.137 261.734 5.09796 269.218 10.0198 271.182C14.9417 273.145 22.4417 275.108 22.4417 275.108C23.1448 278.298 25.137 283.697 31.1136 288.36C40.0198 295.476 57.2464 287.255 57.2464 287.255L64.2776 282.838C64.2776 282.838 64.512 289.464 69.6683 290.445C74.8245 291.427 76.9339 290.323 85.9573 267.623C91.2308 255.967 91.5823 256.58 91.5823 256.58L92.1683 256.458C92.1683 256.458 88.0667 278.666 89.7073 284.679C91.348 290.691 98.0276 290.077 98.0276 290.077C98.0276 290.077 101.778 291.427 104.707 280.384C107.754 269.341 113.379 257.807 113.379 257.807H114.082C114.082 257.807 111.621 280.016 115.371 287.255C119.239 294.494 129.082 289.464 129.082 289.464C129.082 289.464 135.996 285.66 137.051 284.556C137.051 284.556 145.254 291.795 156.856 290.445C182.754 285.047 192.012 277.807 192.012 277.807C192.012 277.807 196.465 289.586 210.293 290.691C226.114 291.918 234.668 281.488 234.668 281.488C234.668 281.488 234.551 288.237 240.059 290.568C245.567 292.899 249.317 280.384 249.317 280.384L258.575 254.494H259.395C259.395 254.494 259.864 271.059 269.004 273.758C278.145 276.458 289.981 266.887 289.981 266.887C289.981 266.887 292.559 265.537 291.973 260.507" fill="#E24B31"/>
</svg>
