<svg width="233" height="263" viewBox="0 0 233 263" fill="none" xmlns="http://www.w3.org/2000/svg">
<rect width="233" height="263" fill="none"/>
<path d="M116.391 262.496C112.849 262.498 109.37 261.566 106.303 259.796L74.2032 240.793C69.4126 238.112 71.7469 237.165 73.3313 236.612C78.4264 235.038 83.3048 232.833 87.8532 230.049C88.2339 229.873 88.6533 229.797 89.0716 229.828C89.4899 229.86 89.8934 229.997 90.2438 230.228L114.909 244.881C115.369 245.124 115.88 245.251 116.4 245.251C116.92 245.251 117.431 245.124 117.891 244.881L214.078 189.362C214.528 189.092 214.901 188.71 215.159 188.253C215.417 187.797 215.552 187.28 215.55 186.756V75.6995C215.55 75.1665 215.413 74.6423 215.152 74.1776C214.891 73.7129 214.515 73.3233 214.059 73.0464L117.872 17.5745C117.418 17.319 116.907 17.1848 116.386 17.1848C115.865 17.1848 115.354 17.319 114.9 17.5745L18.7688 73.0651C18.3103 73.3363 17.9295 73.7213 17.6634 74.1828C17.3974 74.6443 17.255 75.1668 17.2501 75.6995V186.709C17.2514 187.232 17.3918 187.746 17.6571 188.198C17.9223 188.649 18.3027 189.022 18.7594 189.278L45.1407 204.503C59.4376 211.646 68.1938 203.228 68.1938 194.771V85.1682C68.1938 84.4223 68.4901 83.7069 69.0176 83.1795C69.545 82.652 70.2604 82.3557 71.0063 82.3557H83.1938C83.9397 82.3557 84.6551 82.652 85.1826 83.1795C85.71 83.7069 86.0063 84.4223 86.0063 85.1682V194.781C86.0063 213.859 75.6188 224.781 57.5251 224.781C49.7192 224.917 42.0358 222.829 35.3719 218.762L10.0876 204.259C7.01808 202.471 4.47116 199.91 2.70108 196.83C0.930989 193.751 -0.000339811 190.261 6.66732e-05 186.709V75.6995C-0.00905694 72.1419 0.918332 68.6447 2.68904 65.5591C4.45975 62.4735 7.01139 59.9083 10.0876 58.1214L106.284 2.58385C109.383 0.88855 112.859 0 116.391 0C119.923 0 123.398 0.88855 126.497 2.58385L222.684 58.1214C225.754 59.9053 228.301 62.4631 230.073 65.5393C231.845 68.6155 232.778 72.1027 232.781 75.6526V186.709C232.776 190.261 231.841 193.75 230.07 196.828C228.299 199.907 225.752 202.469 222.684 204.259L126.497 259.796C123.424 261.569 119.938 262.501 116.391 262.496V262.496Z" fill="#83CD29"/>
<path d="M98.147 149.556C98.147 148.81 98.4433 148.094 98.9707 147.567C99.4982 147.04 100.214 146.743 100.959 146.743H113.4C114.065 146.745 114.707 146.983 115.214 147.414C115.72 147.844 116.057 148.441 116.166 149.096C118.041 161.762 123.666 168.146 149.1 168.146C169.359 168.146 177.994 163.562 177.994 152.809C177.994 146.612 175.547 142.009 144.056 138.924C117.731 136.318 101.456 130.487 101.456 109.449C101.456 90.0432 117.816 78.4651 145.238 78.4651C176.053 78.4651 191.306 89.162 193.238 112.112C193.267 112.495 193.218 112.88 193.093 113.244C192.968 113.607 192.769 113.941 192.51 114.225C192.251 114.508 191.936 114.736 191.586 114.893C191.235 115.051 190.856 115.135 190.472 115.14H177.947C177.319 115.131 176.711 114.912 176.222 114.518C175.733 114.124 175.389 113.577 175.247 112.965C172.256 99.6432 164.934 95.387 145.247 95.387C123.122 95.387 120.553 103.093 120.553 108.868C120.553 115.862 123.591 117.906 153.459 121.853C183.019 125.762 197.063 131.293 197.063 152.068C197.063 173.031 179.588 185.031 149.109 185.031C106.969 185.087 98.147 165.765 98.147 149.556V149.556Z" fill="#83CD29"/>
</svg>
