<svg width="263" height="263" viewBox="0 0 263 263" fill="none" xmlns="http://www.w3.org/2000/svg">
<rect width="263" height="263" fill="none"/>
<path d="M0 0H262.5V262.5H0V0Z" fill="#F5DE19"/>
<path d="M176.334 205.078C178.571 209.621 182.046 213.44 186.358 216.094C190.671 218.748 195.646 220.129 200.709 220.078C210.928 220.078 217.462 214.969 217.462 207.891C217.462 199.453 210.75 196.434 199.5 191.513L193.331 188.869C175.519 181.284 163.706 171.788 163.706 151.706C163.706 133.209 177.769 119.119 199.828 119.119C206.969 118.603 214.104 120.201 220.342 123.714C226.581 127.227 231.647 132.499 234.909 138.872L215.625 151.2C214.369 148.04 212.182 145.336 209.354 143.448C206.526 141.559 203.191 140.575 199.79 140.625C198.307 140.476 196.809 140.639 195.391 141.101C193.974 141.564 192.669 142.316 191.558 143.311C190.448 144.306 189.557 145.521 188.942 146.88C188.327 148.238 188.002 149.709 187.987 151.2C187.987 158.597 192.572 161.597 203.156 166.2L209.325 168.844C230.287 177.834 242.137 186.994 242.137 207.591C242.137 229.8 224.69 241.969 201.262 241.969C192.134 242.55 183.032 240.478 175.056 236.001C167.079 231.525 160.568 224.835 156.309 216.741L176.334 205.078ZM89.1936 207.216C93.0654 214.088 96.5904 219.9 105.065 219.9C113.165 219.9 118.284 216.731 118.284 204.403V120.525H142.95V204.731C142.95 230.269 127.95 241.894 106.115 241.894C98.3975 242.316 90.7325 240.392 84.1281 236.376C77.5237 232.361 72.2891 226.44 69.1123 219.394L89.1936 207.216Z" fill="black"/>
</svg>
