<svg width="0" height="0" class="hidden">
  <symbol fill="none" xmlns="http://www.w3.org/2000/svg" id="architecture">
    <path fill-rule="evenodd" clip-rule="evenodd" d="M6.499 3.34C6.499 1.755 7.835.6 9.316.6h51.032c1.482 0 2.817 1.154 2.817 2.74v53.578h4.27a1.4 1.4 0 110 2.8 NaN NaN 1.404 1.404 0 1-.1 NaN NaN 1.4 1.4 0 110-2.8 NaN NaNzm2.8 53.578h5.705v-5.305c0-1.586 1.336-2.74 2.818-2.74h8.505c1.482 0 2.817 1.154 2.817 2.74v5.305h14.21v-13.29h-15.61c-2.264 0-4.235-1.755-4.235-4.082V19.491H9.3v37.427zm0-40.227h32.62c2.266 0 4.236 1.755 4.236 4.081v36.146h14.21V3.401a.105.105 0 0-.017-.001 NaNH9.252zm17.01 2.8v20.055c0 .636.568 1.282 1.435 1.282h15.61V20.772c0-.635-.567-1.281-1.434-1.281H26.31zm.035 37.427v-5.245a.11.11 0 0-.017 0 NaNh-8.574 8.54zM49.025 18.09a1.4 1.4 0 11.4-1.4 NaN NaN 1.4 1.4 0 10 2.8 NaN NaN 1.4 1.4 0 1-1.4 NaN NaNzm0 5.363a1.4 1.4 0 11.4-1.4 NaN NaN 1.4 1.4 0 10 2.8 NaN NaN 1.4 1.4 0 1-1.4 NaN NaNzM12.17 26.136a1.4 1.4 0 11.4-1.4 NaN NaN 1.4 1.4 0 110 2.8 NaN NaN 1.4 1.4 0 1-1.4 NaN NaNzm36.856 2.682a1.4 1.4 0 11.4-1.4 NaN NaN 1.4 1.4 0 10 2.8 NaN NaN 1.4 1.4 0 1-1.4 NaN NaNzM12.17 31.5a1.4 1.4 0 11.4-1.4 NaN NaN 1.4 1.4 0 110 2.8 NaN NaN 1.4 1.4 0 1-1.4 NaN NaNzm36.856 2.681a1.4 1.4 0 11.4-1.4 NaN NaN 1.4 1.4 0 10 2.8 NaN NaN 1.4 1.4 0 1-1.4 NaN NaNzM12.17 36.864a1.4 1.4 0 11.4-1.4 NaN NaN 1.4 1.4 0 110 2.8 NaN NaN 1.4 1.4 0 1-1.4 NaN NaNzm36.856 2.681a1.4 1.4 0 11.4-1.4 NaN NaN 1.4 1.4 0 10 2.8 NaN NaN 1.4 1.4 0 1-1.4 NaN NaNzM12.17 42.227a1.4 1.4 0 11.4-1.4 NaN NaN 1.4 1.4 0 10 2.8 NaN NaN 1.4 1.4 0 1-1.4 NaN NaNzm36.856 2.682a1.4 1.4 0 11.4-1.4 NaN NaN 1.4 1.4 0 10 2.8 NaN NaN 1.4 1.4 0 1-1.4 NaN NaNzm0 5.363a1.4 1.4 0 11.4-1.4 NaN NaN 1.4 1.4 0 10 2.8 NaN NaN 1.4 1.4 0 1-1.4 NaN NaNz" fill="#999"></path>
  </symbol>
  <symbol fill="none" xmlns="http://www.w3.org/2000/svg" id="landscape">
    <path d="M61.618 46.217c.575 0 1.04-.44 1.04-.983 0-.544-.466-.984-1.04-.984h-1.04c0-.543-.465-.983-1.039-.983-.574 0-1.04.44-1.04.983H41.868c0-.543-.465-.983-1.04-.983-.573 0-1.038.44-1.038.983h-1.04c-.574 0-1.04.44-1.04.983 0 .544.466.984 1.04.984h1.04v2.95h-1.04c-.574 0-1.04.44-1.04.983 0 .543.466.983 1.04.983h1.04v.984h-1.04c-.574 0-1.04.44-1.04.983 0 .543.466.983 1.04.983h1.04v2.95H22.116v-8.135a10.738 10.738 0 5.038 1.252 NaN NaN 8.655 8.655 0 1.841-5.353 NaN NaN 7.25 7.25 0 0-.51 NaN NaN 8.655 8.655 0 1.841 5.353 NaN NaNzm-50.457-32.79c0 .114.014.226.02.34H5.483c-1.722 0-3.119-1.32-3.119-2.95 0-1.63 1.397-2.95 3.12-2.95.275 0 .54-.104.734-.288a.957.957 0 .305-.696 NaN NaNzm8.876 43.606h-2.079v-9.58c.373-.329.72-.682 1.04-1.056.32.374.667.727 1.04 1.055v9.581zm.127-12.495l6.845-6.476a.946.946 0 0-.006-1.384 1.082.946.946 0 0-.004 NaN NaN 1.082 1.082 0 0-1.465 NaN NaN 1.082 1.082 0 0-1.465 NaN NaN.948.948 0 0-.284 NaN NaN.937.937 0 0-.09 NaN NaN 5.498 5.498 0 1-1.19 NaN NaN.948.948 0 0-.284 NaN NaNzM58.5 57.033H41.867v-2.95H58.5v2.95zm0-4.916H41.867v-.983H58.5v.983zm0-2.95H41.867v-2.95H58.5v2.95zM44.987 24.58h12.474c2.68 0 4.921-1.927 5.175-4.451.253-2.524-1.564-4.817-4.197-5.294-.475-3.426-3.562-5.987-7.215-5.987-3.652 0-6.74 2.561-7.215 5.987-2.632.477-4.45 2.77-4.196 5.294.253 2.524 2.494 4.452 5.174 4.452zm0-7.866c.276 0 .54-.103.735-.288a.957.957 0 .305-.695 NaN NaNz" fill="#999"></path>
  </symbol>
  <symbol fill="none" xmlns="http://www.w3.org/2000/svg" id="logo">
    <path fill-rule="evenodd" clip-rule="evenodd" d="M40 .314H0v36.929h40V.314zM27.267 10.867H22.08v4.79h5.187v-4.79zm-9.353 1.513v9.516h9.36v4.796H12.727V12.38h5.187z" fill="#fff"></path>
  </symbol>
</svg>